<svg xmlns="http://www.w3.org/2000/svg" width="27" height="21" viewBox="0 0 27 21">
  <path id="Path_8431" data-name="Path 8431" d="M-9-3.75a.752.752,0,0,1,.75-.75h3a.752.752,0,0,1,.75.75A.752.752,0,0,1-5.25-3h-3A.752.752,0,0,1-9-3.75Zm6,0a.752.752,0,0,1,.75-.75h6a.752.752,0,0,1,.75.75A.752.752,0,0,1,3.75-3h-6A.752.752,0,0,1-3-3.75ZM-13.5-16.5a3,3,0,0,1,3-3h21a3,3,0,0,1,3,3v15a3,3,0,0,1-3,3h-21a3,3,0,0,1-3-3Zm1.5,0V-15H12v-1.5A1.5,1.5,0,0,0,10.5-18h-21A1.5,1.5,0,0,0-12-16.5Zm0,6H12v-3H-12ZM-12-9v7.5A1.5,1.5,0,0,0-10.5,0h21A1.5,1.5,0,0,0,12-1.5V-9Z" transform="translate(13.5 19.5)" fill="#232d64"/>
</svg>
