<svg xmlns="http://www.w3.org/2000/svg" width="30" height="24" viewBox="0 0 30 24">
  <path id="Path_8430" data-name="Path 8430" d="M-10.5-18v1.5h6.75a.752.752,0,0,1,.75.75.752.752,0,0,1-.75.75h-10.5a.751.751,0,0,1-.75-.75.751.751,0,0,1,.75-.75H-12V-18a3,3,0,0,1,3-3H1.5a3,3,0,0,1,3,3v1.5H7.561a2.237,2.237,0,0,1,1.706.787l3.689,4.3A2.242,2.242,0,0,1,13.5-9.947V-3h.75a.752.752,0,0,1,.75.75.752.752,0,0,1-.75.75H12A4.5,4.5,0,0,1,7.5,3,4.474,4.474,0,0,1,3-1.5H-3.042A4.474,4.474,0,0,1-7.542,3a4.5,4.5,0,0,1-4.5-4.5v-6h1.5v2.644A4.564,4.564,0,0,1-7.542-6,4.509,4.509,0,0,1-3.258-3H3V-18a1.5,1.5,0,0,0-1.5-1.5H-9.042a1.527,1.527,0,0,0-1.5,1.5h.042ZM8.128-14.737A.8.8,0,0,0,7.561-15H4.5v4.5h7.261ZM4.5-9v4.144A4.4,4.4,0,0,1,7.5-6a4.5,4.5,0,0,1,4.242,3H12V-9Zm-12,4.5a3,3,0,0,0-3,3,3,3,0,0,0,3,3,3,3,0,0,0,3-3A3,3,0,0,0-7.5-4.5Zm15,6a3,3,0,0,0,3-3,3,3,0,0,0-3-3,3,3,0,0,0-3,3A3,3,0,0,0,7.5,1.5Zm-9.75-15a.752.752,0,0,1,.75.75.752.752,0,0,1-.75.75h-10.5a.751.751,0,0,1-.75-.75.751.751,0,0,1,.75-.75Zm-1.5,3A.752.752,0,0,1-3-9.75.752.752,0,0,1-3.75-9h-10.5A.751.751,0,0,1-15-9.75a.751.751,0,0,1,.75-.75Z" transform="translate(15 21)" fill="#232d64"/>
</svg>
