<svg xmlns="http://www.w3.org/2000/svg" width="26.759" height="26.759" viewBox="0 0 26.759 26.759">
  <g id="pix-ico" transform="translate(0 13.381) rotate(-45)" fill="none">
    <path d="M9.936,18.92V9.932h8.987V15.92a3,3,0,0,1-3,3ZM3,18.92a3,3,0,0,1-3-3V9.932H8.987V18.92ZM9.936,8.987V0h5.987a3,3,0,0,1,3,3V8.987ZM0,8.987V3A3,3,0,0,1,3,0H8.987V8.987Z" stroke="none"/>
    <path d="M 15.92280006408691 17.4197998046875 C 16.75023078918457 17.4197998046875 17.42340087890625 16.74703979492188 17.42340087890625 15.92010021209717 L 17.42340087890625 11.43239974975586 L 11.43600082397461 11.43239974975586 L 11.43600082397461 17.4197998046875 L 15.92280006408691 17.4197998046875 M 7.487400531768799 17.4197998046875 L 7.487400531768799 11.43239974975586 L 1.500000476837158 11.43239974975586 L 1.500000476837158 15.92010021209717 C 1.500000476837158 16.74703979492188 2.173170328140259 17.4197998046875 3.000600337982178 17.4197998046875 L 7.487400531768799 17.4197998046875 M 17.42340087890625 7.487400054931641 L 17.42340087890625 2.999699831008911 C 17.42340087890625 2.172760009765625 16.75023078918457 1.49999988079071 15.92280006408691 1.49999988079071 L 11.43600082397461 1.49999988079071 L 11.43600082397461 7.487400054931641 L 17.42340087890625 7.487400054931641 M 7.487400531768799 7.487400054931641 L 7.487400531768799 1.49999988079071 L 3.000600337982178 1.49999988079071 C 2.173170328140259 1.49999988079071 1.500000476837158 2.172760009765625 1.500000476837158 2.999699831008911 L 1.500000476837158 7.487400054931641 L 7.487400531768799 7.487400054931641 M 15.92280006408691 18.9197998046875 L 9.936000823974609 18.9197998046875 L 9.936000823974609 9.932399749755859 L 18.92340087890625 9.932399749755859 L 18.92340087890625 15.92010021209717 C 18.92340087890625 17.57699966430664 17.5797004699707 18.9197998046875 15.92280006408691 18.9197998046875 Z M 8.987400054931641 18.9197998046875 L 3.000600337982178 18.9197998046875 C 1.343700408935547 18.9197998046875 4.39453117451194e-07 17.57699966430664 4.39453117451194e-07 15.92010021209717 L 4.39453117451194e-07 9.932399749755859 L 8.987400054931641 9.932399749755859 L 8.987400054931641 18.9197998046875 Z M 18.92340087890625 8.987400054931641 L 9.936000823974609 8.987400054931641 L 9.936000823974609 -9.765625463842298e-08 L 15.92280006408691 -9.765625463842298e-08 C 17.5797004699707 -9.765625463842298e-08 18.92340087890625 1.34279990196228 18.92340087890625 2.999699831008911 L 18.92340087890625 8.987400054931641 Z M 8.987400054931641 8.987400054931641 L 4.39453117451194e-07 8.987400054931641 L 4.39453117451194e-07 2.999699831008911 C 4.39453117451194e-07 1.34279990196228 1.343700408935547 -9.765625463842298e-08 3.000600337982178 -9.765625463842298e-08 L 8.987400054931641 -9.765625463842298e-08 L 8.987400054931641 8.987400054931641 Z" stroke="none" fill="#232d64"/>
  </g>
</svg>
