<svg id="amex" xmlns="http://www.w3.org/2000/svg" width="44.8" height="32" viewBox="0 0 44.8 32">
  <rect id="Rectangle_651" data-name="Rectangle 651" width="44.8" height="32" rx="4" transform="translate(0 0)" fill="#fff" opacity="0.995"/>
  <path id="Path_7835" data-name="Path 7835" d="M28.338,9.695,27.6,11.419h1.49Zm-8.574,1.069a.438.438,0,0,0,.222-.411.394.394,0,0,0-.226-.382,1.151,1.151,0,0,0-.512-.08H17.92v.96h1.311a1.04,1.04,0,0,0,.534-.086ZM2.732,9.695,2,11.419H3.471Zm34.2,11.048H34.849v-.928h2.08a.633.633,0,0,0,.437-.107.373.373,0,0,0,.128-.282.348.348,0,0,0-.134-.282.566.566,0,0,0-.38-.1c-1.014-.033-2.278.03-2.278-1.34,0-.628.416-1.289,1.549-1.289H38.4v-.862h-2a2.32,2.32,0,0,0-1.351.354v-.354H32.094a2.109,2.109,0,0,0-1.29.354v-.354h-5.28v.354a2.906,2.906,0,0,0-1.455-.354H20.591v.354a2.547,2.547,0,0,0-1.52-.354h-3.9l-.891.924-.835-.924H7.629V21.6h5.71l.918-.939.863.939h3.52V20.179h.346a3.809,3.809,0,0,0,1.5-.212V21.6h2.9V20.023h.14c.178,0,.2.007.2.178v1.4h8.819a2.594,2.594,0,0,0,1.469-.386V21.6h2.8a3.893,3.893,0,0,0,1.582-.279V20.192a1.718,1.718,0,0,1-1.465.554Zm-17.9-1.423H17.686v1.452h-2.1l-1.33-1.433L12.88,20.771H8.6V16.443h4.342l1.329,1.419,1.373-1.418h3.45c.857,0,1.819.227,1.819,1.426s-.936,1.45-1.88,1.45Zm6.48-.2a1.218,1.218,0,0,1,.179.79v.858H24.606v-.542c0-.26.026-.646-.174-.847a1.08,1.08,0,0,0-.792-.192H22.486v1.581H21.4V16.444h2.492a2.778,2.778,0,0,1,1.3.2,1.006,1.006,0,0,1,.555.96,1.214,1.214,0,0,1-.765,1.151,1.173,1.173,0,0,1,.529.363Zm4.459-1.785H27.44v.787h2.466v.88H27.44v.861h2.528v.9h-3.6V16.437h3.6Zm2.774,3.433H30.64v-.928h2.094a.654.654,0,0,0,.441-.107.377.377,0,0,0,.127-.282.366.366,0,0,0-.132-.286.587.587,0,0,0-.385-.1c-1.01-.033-2.274.03-2.274-1.34,0-.628.412-1.289,1.543-1.289h2.164v.921H32.24a.756.756,0,0,0-.433.08.327.327,0,0,0-.16.311.333.333,0,0,0,.24.32,1.293,1.293,0,0,0,.42.049l.581.015a1.793,1.793,0,0,1,1.233.348,1.175,1.175,0,0,1,.32.917c0,.931-.607,1.366-1.7,1.366Zm-8.372-3.36a1.1,1.1,0,0,0-.515-.08H22.527V18.3H23.84a1.072,1.072,0,0,0,.533-.09A.462.462,0,0,0,24.6,17.8a.409.409,0,0,0-.224-.39Zm12.062-.08a.776.776,0,0,0-.437.08.333.333,0,0,0-.16.311.328.328,0,0,0,.24.32,1.28,1.28,0,0,0,.416.049l.586.015a1.76,1.76,0,0,1,1.225.349.56.56,0,0,1,.1.107V17.33H36.438Zm-17.36,0H17.663v1.1h1.4c.414,0,.673-.2.673-.572s-.27-.532-.66-.532Zm-9.394,0v.787h2.37V19H9.68v.864h2.654l1.233-1.27-1.181-1.262Zm6.93,3.026V16.887l-1.658,1.707,1.658,1.76Zm-6.84-6.949v.746h9.014l0-1.578h.178c.122,0,.16.015.16.208v1.37h4.665v-.372a3.828,3.828,0,0,0,1.731.367h1.962l.42-.96h.926l.41.96h3.782v-.91l.573.913h3.03V8.119h-3v.713l-.42-.713H30.123v.713l-.386-.713h-4.16a3.871,3.871,0,0,0-1.8.353V8.119H20.91v.352a1.832,1.832,0,0,0-1.219-.353H9.211l-.7,1.558-.72-1.558h-3.3v.713l-.363-.712H1.307L0,10.988v2.3L1.934,8.956h1.6l1.836,4.1v-4.1H7.13l1.413,2.935,1.3-2.935h1.8v4.327h-1.1l0-3.389L8.966,13.283H8.019L6.45,9.891v3.392h-2.2l-.414-.966H1.592l-.419.965H0v.87H1.845l.416-.96h.931l.414.96H7.235v-.735l.32.738H9.44l.32-.749ZM23.979,9.463a2.251,2.251,0,0,1,1.639-.5h1.046v.927H25.641a1.068,1.068,0,0,0-.83.256,1.389,1.389,0,0,0-.31.98,1.458,1.458,0,0,0,.3,1.014,1.072,1.072,0,0,0,.753.223h.485l1.52-3.4h1.618L31,13.048V8.956H32.64l1.9,3.014V8.956h1.106v4.327H34.118l-2.046-3.248v3.248h-2.2l-.42-.965h-2.24l-.413.964H25.539a2.335,2.335,0,0,1-1.566-.48,2.123,2.123,0,0,1-.577-1.652,2.24,2.24,0,0,1,.582-1.688ZM21.76,8.955h1.1v4.327h-1.1Zm-4.966,0h2.48a2.64,2.64,0,0,1,1.307.207,1,1,0,0,1,.546.96,1.22,1.22,0,0,1-.761,1.154,1.253,1.253,0,0,1,.534.364,1.2,1.2,0,0,1,.178.794v.85H19.993l0-.546a1.253,1.253,0,0,0-.17-.843,1.09,1.09,0,0,0-.787-.186H17.873v1.574h-1.08V8.955Zm-4.352,0h3.606v.9H13.52v.78h2.466v.887H13.52v.864h2.526v.9H12.441Z" transform="translate(3.2 1.481)" fill="#016fd0"/>
</svg>
