<svg id="boleto" xmlns="http://www.w3.org/2000/svg" width="44.8" height="32" viewBox="0 0 44.8 32">
  <rect id="Rectangle_652" data-name="Rectangle 652" width="44.8" height="32" rx="4" transform="translate(0 0)" fill="#fff" opacity="0.995"/>
  <path id="Path_7836" data-name="Path 7836" d="M0-9.5H1.125v-16H0Zm1.68-.011h.571V-25.5H1.68Zm1.7,0H3.93V-25.5H3.375Zm2.8,0H6.73V-25.5H6.178Zm2.25,0H9.536V-25.5H8.429Zm2.8,0h.554V-25.5h-.549Zm1.125,0h.554V-25.5h-.554Zm1.125,0h.554V-25.5h-.554Zm2.232,0h1.125V-25.5H15.714Zm2.8,0h1.125V-25.5H18.518Zm2.25,0h1.125V-25.5H20.768Zm2.25,0h1.125V-25.5H23.018Zm1.68,0h1.125V-25.5H24.7Zm2.822,0h1.68V-25.5H27.52Zm2.232,0h.578V-25.5h-.571Zm1.125.011H32v-16H30.875Z" transform="translate(6.4 33.5)" fill="#0f0d0b"/>
</svg>
