<svg id="dinners" xmlns="http://www.w3.org/2000/svg" width="44.8" height="32" viewBox="0 0 44.8 32">
  <g id="Rectangle_650" data-name="Rectangle 650" transform="translate(0 0)" fill="none" stroke="#e0e0e0" stroke-width="1" opacity="0.995">
    <rect width="44.8" height="32" rx="4" stroke="none"/>
    <rect x="0.5" y="0.5" width="43.8" height="31" rx="3.5" fill="none"/>
  </g>
  <g id="Group_1357" data-name="Group 1357" transform="translate(10.399 6.395)">
    <path id="Path_7834" data-name="Path 7834" d="M17952.822,9180.2h-4.6a9.587,9.587,0,0,1-6.787-2.8,9.555,9.555,0,0,1,6.824-16.4h4.521a10.352,10.352,0,0,1,3.771.707,10.029,10.029,0,0,1,3.2,1.986,9.4,9.4,0,0,1,3.041,6.989,8.737,8.737,0,0,1-.824,3.69,9.776,9.776,0,0,1-2.207,3.027A10.282,10.282,0,0,1,17952.822,9180.2Zm-4.521-18.388a8.775,8.775,0,1,0,6.2,2.571,8.774,8.774,0,0,0-6.2-2.571Zm2,13.965h0v-10.4a5.568,5.568,0,0,1,0,10.4Zm-3.979,0h0a5.572,5.572,0,0,1,0-10.394v10.393Z" transform="translate(-17938.609 -9160.998)" fill="#0079be"/>
  </g>
</svg>
