<svg id="elo" xmlns="http://www.w3.org/2000/svg" width="44.8" height="32" viewBox="0 0 44.8 32">
  <rect id="Rectangle_649" data-name="Rectangle 649" width="44.8" height="32" rx="4" transform="translate(0 0)" fill="#fff" opacity="0.995"/>
  <g id="Group_1356" data-name="Group 1356" transform="translate(4 9.601)">
    <path id="Path_7830" data-name="Path 7830" d="M14.189,14.717a3.907,3.907,0,0,1,1.254-.2,3.964,3.964,0,0,1,3.885,3.174l2.72-.556a6.736,6.736,0,0,0-8.734-5.046l.88,2.63Z" transform="translate(-8.709 -11.739)" fill="#fbc707"/>
    <path id="Path_7831" data-name="Path 7831" d="M8.579,24.41l1.84-2.08a3.967,3.967,0,0,1,0-5.937l-1.84-2.075a6.741,6.741,0,0,0,0,10.093Z" transform="translate(-6.307 -12.623)" fill="#38a7e4"/>
    <path id="Path_7832" data-name="Path 7832" d="M19.324,23.2a3.976,3.976,0,0,1-5.144,2.966L13.3,28.8a6.743,6.743,0,0,0,8.741-5.04l-2.72-.555Z" transform="translate(-8.705 -15.669)" fill="#ef3120"/>
    <path id="Path_7833" data-name="Path 7833" d="M37.349,22.019a2.4,2.4,0,0,1-1.729.694,2.35,2.35,0,0,1-1.249-.376l-.9,1.434a4.119,4.119,0,0,0,5.064-.538Zm-1.63-5.844a4.111,4.111,0,0,0-3.509,6.353l7.446-3.183a4.116,4.116,0,0,0-3.937-3.168m-2.468,4.368a2.352,2.352,0,0,1-.018-.289,2.421,2.421,0,0,1,2.457-2.382,2.393,2.393,0,0,1,1.81.862ZM42,14.325v7.937l1.376.572L42.719,24.4l-1.364-.566a1.52,1.52,0,0,1-.67-.566,1.775,1.775,0,0,1-.266-.982v-7.96H42ZM46.963,18A2.431,2.431,0,0,1,50.1,19.811l1.659-.341a4.112,4.112,0,0,0-4.029-3.29,4.171,4.171,0,0,0-1.3.208L46.963,18ZM45,23.366l1.12-1.266a2.422,2.422,0,0,1,0-3.625L45,17.21a4.109,4.109,0,0,0,0,6.16Zm5.1-2.59a2.414,2.414,0,0,1-3.139,1.81l-.538,1.607a4.11,4.11,0,0,0,5.335-3.075L50.1,20.777Z" transform="translate(-14.96 -12.626)" fill="#231f20"/>
  </g>
</svg>
