<svg id="mastercard" xmlns="http://www.w3.org/2000/svg" width="44.8" height="32" viewBox="0 0 44.8 32">
  <rect id="Rectangle_648" data-name="Rectangle 648" width="44.8" height="32" rx="4" transform="translate(0 0)" fill="#fff" opacity="0.995"/>
  <g id="type" transform="translate(-7.609 -10.652)">
    <path id="Path_8415" data-name="Path 8415" d="M44.134,37.84V37.9h.056a.053.053,0,0,0,.03-.007.029.029,0,0,0,0-.046.063.063,0,0,0-.03-.007Zm.056-.042a.1.1,0,0,1,.066.019.063.063,0,0,1,.024.053.06.06,0,0,1-.019.046.091.091,0,0,1-.053.022l.073.085h-.058l-.068-.084h-.022v.084h-.048V37.8Zm-.014.3a.175.175,0,0,0,.072-.015.189.189,0,0,0,.059-.04.194.194,0,0,0,.04-.06.186.186,0,0,0,0-.146.194.194,0,0,0-.04-.06.189.189,0,0,0-.059-.04.175.175,0,0,0-.072-.015.184.184,0,0,0-.074.015.189.189,0,0,0-.059.04.188.188,0,0,0,0,.267.189.189,0,0,0,.059.04A.184.184,0,0,0,44.175,38.1Zm0-.429a.254.254,0,0,1,.1.019.237.237,0,0,1,.078.053.244.244,0,0,1,.053.076.242.242,0,0,1,0,.187.256.256,0,0,1-.053.076.251.251,0,0,1-.078.052.237.237,0,0,1-.1.02.243.243,0,0,1-.1-.02A.24.24,0,0,1,44,38.081.256.256,0,0,1,43.947,38a.243.243,0,0,1,0-.187A.244.244,0,0,1,44,37.741a.227.227,0,0,1,.078-.053A.261.261,0,0,1,44.175,37.669Zm-22.634-.862a.735.735,0,1,1,.736.777A.728.728,0,0,1,21.541,36.808Zm1.964,0V35.6h-.527v.294a.921.921,0,0,0-.766-.356,1.276,1.276,0,0,0,0,2.548.921.921,0,0,0,.766-.355v.294h.527Zm17.826,0a.735.735,0,1,1,.737.777A.728.728,0,0,1,41.331,36.808Zm1.964,0V34.621h-.527V35.89A.921.921,0,0,0,42,35.534a1.276,1.276,0,0,0,0,2.548.921.921,0,0,0,.766-.355v.294H43.3Zm-13.242-.8a.6.6,0,0,1,.615.588H29.409A.624.624,0,0,1,30.053,36.007Zm.011-.473a1.275,1.275,0,0,0,.035,2.548,1.475,1.475,0,0,0,1-.34l-.259-.391a1.156,1.156,0,0,1-.706.254.674.674,0,0,1-.726-.594h1.8c0-.065.011-.132.011-.2A1.165,1.165,0,0,0,30.064,35.534Zm6.369,1.274a.735.735,0,1,1,.736.777A.728.728,0,0,1,36.433,36.808Zm1.964,0V35.6H37.87v.294a.921.921,0,0,0-.766-.356,1.276,1.276,0,0,0,0,2.548.921.921,0,0,0,.766-.355v.294H38.4Zm-4.943,0a1.226,1.226,0,0,0,1.295,1.274,1.269,1.269,0,0,0,.872-.289l-.254-.426a1.066,1.066,0,0,1-.635.218.778.778,0,0,1,0-1.554,1.066,1.066,0,0,1,.635.218l.254-.426a1.27,1.27,0,0,0-.872-.29A1.226,1.226,0,0,0,33.454,36.808Zm6.8-1.274a.716.716,0,0,0-.639.356V35.6h-.523v2.426h.527v-1.36c0-.4.173-.625.518-.625a.863.863,0,0,1,.33.061l.163-.5A1.135,1.135,0,0,0,40.255,35.534Zm-14.14.254a1.816,1.816,0,0,0-.99-.254c-.614,0-1.009.294-1.009.777,0,.4.293.639.837.715l.249.036c.29.041.426.117.426.254,0,.188-.192.294-.553.294a1.289,1.289,0,0,1-.807-.254l-.249.411a1.752,1.752,0,0,0,1.051.314c.7,0,1.106-.329,1.106-.791,0-.426-.319-.65-.848-.726l-.249-.036c-.228-.031-.41-.076-.41-.239s.173-.284.462-.284a1.562,1.562,0,0,1,.755.207Zm6.806-.254a.716.716,0,0,0-.639.356V35.6h-.523v2.426h.528v-1.36c0-.4.173-.625.518-.625a.867.867,0,0,1,.33.061l.162-.5A1.125,1.125,0,0,0,32.921,35.534Zm-4.5.061h-.863V34.86h-.533V35.6H26.53v.482h.493v1.106c0,.564.218.9.843.9a1.237,1.237,0,0,0,.659-.187l-.152-.452a.979.979,0,0,1-.467.138c-.265,0-.35-.163-.35-.406v-1.1h.863Zm-7.888,2.426V36.5a.9.9,0,0,0-.954-.965.941.941,0,0,0-.853.432.89.89,0,0,0-.8-.432.8.8,0,0,0-.711.361v-.3h-.527v2.426h.532V36.676a.568.568,0,0,1,.594-.644c.351,0,.528.229.528.639v1.35h.532V36.676a.572.572,0,0,1,.594-.644c.361,0,.533.229.533.639v1.35h.532" transform="translate(0 0)" fill="#221f1f"/>
  </g>
  <g id="color" transform="translate(-674.672 -4307.837)">
    <path id="Subtraction_1" data-name="Subtraction 1" d="M9.285,18.948A9.132,9.132,0,0,1,2.72,16.174a9.611,9.611,0,0,1,0-13.4A9.147,9.147,0,0,1,15,2.007a9.575,9.575,0,0,0,0,14.936A9.079,9.079,0,0,1,9.285,18.948Z" transform="translate(682 4312)" fill="#eb001b"/>
    <path id="Intersection_1" data-name="Intersection 1" d="M0,7.467A9.526,9.526,0,0,1,3.572,0a9.528,9.528,0,0,1,3.57,7.467,9.527,9.527,0,0,1-3.57,7.468A9.525,9.525,0,0,1,0,7.467Z" transform="translate(693.427 4314.006)" fill="#ff5f00"/>
    <path id="Subtraction_2" data-name="Subtraction 2" d="M5.712,18.948A9.074,9.074,0,0,1,0,16.942,9.527,9.527,0,0,0,2.6,13.7a9.541,9.541,0,0,0,.97-4.223A9.54,9.54,0,0,0,2.6,5.252,9.545,9.545,0,0,0,0,2.007a9.147,9.147,0,0,1,12.279.769,9.608,9.608,0,0,1,0,13.4A9.135,9.135,0,0,1,5.712,18.948Z" transform="translate(697 4312)" fill="#f79e1b"/>
  </g>
</svg>
