<svg id="pic_pay" data-name="pic pay" xmlns="http://www.w3.org/2000/svg" width="72" height="32" viewBox="0 0 72 32">
  <rect id="Rectangle_652" data-name="Rectangle 652" width="72" height="32" rx="4" transform="translate(0 0)" fill="#fff" opacity="0.995"/>
  <g id="pix-106" transform="translate(7.999 6)">
    <path id="Caminho_7970" data-name="Caminho 7970" d="M390.276,69.93a.186.186,0,0,1-.186-.186V58.194a4.034,4.034,0,0,1,4.034-4.034h0l3.41,0a4.034,4.034,0,0,1,4.02,4.029v2.458a4.039,4.039,0,0,1-4.033,4.034H392.7a.186.186,0,0,1,0-.372h4.82a3.666,3.666,0,0,0,3.661-3.662V58.194a3.662,3.662,0,0,0-3.649-3.657l-3.41,0a3.661,3.661,0,0,0-3.661,3.661v11.55A.186.186,0,0,1,390.276,69.93Z" transform="translate(-366.895 -50.94)" fill="gray"/>
    <path id="Caminho_7971" data-name="Caminho 7971" d="M595.914,64.729a.186.186,0,0,1-.186-.186V55.915a1.394,1.394,0,0,0-1.393-1.393h-1.479a.186.186,0,0,1,0-.372h1.479a1.767,1.767,0,0,1,1.765,1.765v8.627A.186.186,0,0,1,595.914,64.729Z" transform="translate(-557.431 -50.93)" fill="gray"/>
    <path id="Path_7972" data-name="Path 7972" d="M629.316,2.068l-.671-.671a.426.426,0,0,1,0-.6l.671-.671a.427.427,0,0,1,.6,0l.67.671a.426.426,0,0,1,0,.6l-.673.671a.426.426,0,0,1-.6,0" transform="translate(-591.15 0.001)" fill="gray"/>
    <path id="Caminho_7973" data-name="Caminho 7973" d="M699.771,58.989a1.315,1.315,0,0,1-.937-.388L695.4,55.17a2.638,2.638,0,0,0-1.88-.778h-1.467a.186.186,0,1,1,0-.372h1.468a3.011,3.011,0,0,1,2.142.887l3.431,3.431a.951.951,0,0,0,1.346,0l3.419-3.418a3,3,0,0,1,2.143-.887H707.2a.186.186,0,1,1,0,.372H706a2.639,2.639,0,0,0-1.878.778L700.707,58.6A1.315,1.315,0,0,1,699.771,58.989Z" transform="translate(-650.732 -50.808)" fill="gray"/>
    <path id="Caminho_7974" data-name="Caminho 7974" d="M693.524,152.208h-1.468a.186.186,0,1,1,0-.372h1.467a2.64,2.64,0,0,0,1.881-.778l3.431-3.431a1.327,1.327,0,0,1,1.873,0l3.419,3.419a2.64,2.64,0,0,0,1.88.778H707.2a.186.186,0,1,1,0,.372H706a3.01,3.01,0,0,1-2.142-.887l-3.419-3.419a.954.954,0,0,0-1.346,0l-3.431,3.431A3.011,3.011,0,0,1,693.524,152.208Z" transform="translate(-650.732 -138.485)" fill="gray"/>
    <path id="Path_7975" data-name="Path 7975" d="M74.829,204.895a2.739,2.739,0,0,1-1.949-.8l-2.815-2.817a.535.535,0,0,0-.74,0L66.5,204.1a2.74,2.74,0,0,1-1.949.807H64l3.567,3.567a2.854,2.854,0,0,0,4.032,0l3.575-3.575Z" transform="translate(-60.193 -189.167)" fill="#25ccc1"/>
    <path id="Path_7976" data-name="Path 7976" d="M64.552,27.492A2.74,2.74,0,0,1,66.5,28.3l2.825,2.825a.524.524,0,0,0,.74,0L72.88,28.31a2.735,2.735,0,0,1,1.949-.807h.339l-3.575-3.575a2.85,2.85,0,0,0-4.032,0L64,27.492Z" transform="translate(-60.193 -21.719)" fill="#25ccc1"/>
    <path id="Path_7977" data-name="Path 7977" d="M17.908,112.68l-2.16-2.16a.415.415,0,0,1-.153.031h-.982a1.94,1.94,0,0,0-1.363.565l-2.815,2.813a1.352,1.352,0,0,1-1.91,0L5.7,111.1a1.939,1.939,0,0,0-1.363-.565H3.13a.423.423,0,0,1-.145-.029L.811,112.68a2.854,2.854,0,0,0,0,4.032L2.98,118.88a.408.408,0,0,1,.145-.029H4.336a1.94,1.94,0,0,0,1.363-.565l2.825-2.825a1.384,1.384,0,0,1,1.911,0l2.815,2.814a1.94,1.94,0,0,0,1.363.565h.982a.41.41,0,0,1,.153.031l2.16-2.16a2.85,2.85,0,0,0,0-4.032" transform="translate(0.023 -103.939)" fill="#25ccc1"/>
    <path id="Path_7978" data-name="Path 7978" d="M432.3,297.923a2.509,2.509,0,0,0-.529.08v.7a1.227,1.227,0,0,0,.411.069c.353,0,.52-.119.52-.43,0-.292-.137-.423-.4-.423m-.647,1.308v-1.393h.1l.01.06a2.787,2.787,0,0,1,.551-.089.545.545,0,0,1,.361.1.538.538,0,0,1,.159.432.49.49,0,0,1-.226.448.868.868,0,0,1-.41.091,1.473,1.473,0,0,1-.423-.065v.41Z" transform="translate(-405.984 -280.101)" fill="gray"/>
    <path id="Path_7979" data-name="Path 7979" d="M456.277,297.959c-.353,0-.51.111-.51.422s.155.436.51.436.508-.109.508-.42-.155-.438-.508-.438m.454.857a.771.771,0,0,1-.454.109.781.781,0,0,1-.455-.109.485.485,0,0,1-.182-.428.492.492,0,0,1,.182-.43,1.005,1.005,0,0,1,.91,0,.489.489,0,0,1,.181.427.5.5,0,0,1-.181.43" transform="translate(-428.548 -280.141)" fill="gray"/>
    <path id="Path_7980" data-name="Path 7980" d="M481.314,299.339l-.394-.845h-.008l-.388.845h-.109L480,298.32h.131l.349.855h.008l.379-.855h.109l.389.855h.008l.341-.855h.129l-.42,1.019Z" transform="translate(-451.46 -280.583)" fill="gray"/>
    <path id="Path_7981" data-name="Path 7981" d="M514.467,297.936c-.327,0-.438.146-.458.357h.916c-.01-.232-.129-.357-.458-.357m0,.969a.618.618,0,0,1-.424-.113.529.529,0,0,1-.159-.423.52.52,0,0,1,.19-.436.676.676,0,0,1,.4-.1.712.712,0,0,1,.407.1.517.517,0,0,1,.176.47h-1.044c0,.21.073.4.468.4a3.064,3.064,0,0,0,.526-.059v.107a3.109,3.109,0,0,1-.535.062" transform="translate(-483.325 -280.12)" fill="gray"/>
    <path id="Path_7982" data-name="Path 7982" d="M539.3,298.878v-1.019h.1l.01.059a1.791,1.791,0,0,1,.507-.089h.014v.113H539.9a1.668,1.668,0,0,0-.48.08v.853Z" transform="translate(-507.234 -280.122)" fill="gray"/>
    <path id="Path_7983" data-name="Path 7983" d="M552.187,297.936c-.327,0-.438.146-.458.357h.916c-.01-.232-.129-.357-.458-.357m0,.969a.616.616,0,0,1-.423-.113.528.528,0,0,1-.159-.423.521.521,0,0,1,.19-.436.679.679,0,0,1,.4-.1.712.712,0,0,1,.407.1.517.517,0,0,1,.179.47h-1.048c0,.21.073.4.468.4a3.079,3.079,0,0,0,.527-.06v.107a3.122,3.122,0,0,1-.535.062" transform="translate(-518.803 -280.12)" fill="gray"/>
    <path id="Path_7984" data-name="Path 7984" d="M576.449,291.679a1.226,1.226,0,0,0-.411-.068c-.353,0-.52.119-.52.43,0,.294.137.423.4.423a2.625,2.625,0,0,0,.529-.079Zm.023.869-.011-.059a2.74,2.74,0,0,1-.551.089.465.465,0,0,1-.52-.536.476.476,0,0,1,.226-.446.853.853,0,0,1,.411-.093,1.556,1.556,0,0,1,.422.064V291.1h.119v1.448Z" transform="translate(-541.178 -273.792)" fill="gray"/>
    <path id="Path_7985" data-name="Path 7985" d="M614.308,291.614a2.511,2.511,0,0,0-.529.08v.7a1.187,1.187,0,0,0,.411.071c.353,0,.52-.119.52-.43,0-.293-.137-.423-.4-.423m.3.871a.867.867,0,0,1-.409.091,1.445,1.445,0,0,1-.456-.077l-.006.048h-.081V291.1h.119v.486a2.879,2.879,0,0,1,.539-.084.546.546,0,0,1,.361.1.538.538,0,0,1,.159.432.489.489,0,0,1-.226.448" transform="translate(-577.173 -273.792)" fill="gray"/>
    <path id="Path_7986" data-name="Path 7986" d="M635.707,299.7v-.111c.059.006.113.01.151.01a.307.307,0,0,0,.318-.21l.039-.081-.535-1.018h.138l.456.879h.008l.433-.879h.136l-.573,1.144a.415.415,0,0,1-.426.276,1.168,1.168,0,0,1-.147-.01" transform="translate(-597.883 -280.555)" fill="gray"/>
    <path id="Path_7987" data-name="Path 7987" d="M671.845,293.02h-.395v.357h.395c.272,0,.375-.03.375-.178s-.142-.178-.378-.178m-.071-.576h-.322v.363h.325c.268,0,.375-.032.375-.183s-.136-.178-.377-.178m.613,1.063a1.175,1.175,0,0,1-.642.1h-.6V292.22h.589a1.12,1.12,0,0,1,.587.089.292.292,0,0,1,.142.274.3.3,0,0,1-.218.307v.008c.179.04.293.131.293.327a.3.3,0,0,1-.147.281" transform="translate(-631.235 -274.846)" fill="gray"/>
    <path id="Path_7988" data-name="Path 7988" d="M700.25,298.488c-.119-.01-.238-.016-.367-.016-.208,0-.281.042-.281.137s.059.137.22.137a2.052,2.052,0,0,0,.427-.059Zm.06.427-.008-.059a2.441,2.441,0,0,1-.553.089.528.528,0,0,1-.309-.075.315.315,0,0,1,.059-.522.937.937,0,0,1,.382-.055c.106,0,.25.006.369.014v-.018c0-.159-.1-.212-.391-.212-.111,0-.246.006-.375.018v-.206c.143-.012.305-.02.438-.02a.868.868,0,0,1,.476.095.379.379,0,0,1,.139.349v.6Z" transform="translate(-657.747 -280.16)" fill="gray"/>
    <path id="Path_7989" data-name="Path 7989" d="M726.744,298.871v-.562c0-.185-.094-.252-.264-.252a1.94,1.94,0,0,0-.416.064v.75h-.284v-1.019h.232l.01.065a2.351,2.351,0,0,1,.545-.093.5.5,0,0,1,.349.1.4.4,0,0,1,.11.319v.623Z" transform="translate(-682.626 -280.116)" fill="gray"/>
    <path id="Path_7990" data-name="Path 7990" d="M751.71,298.925a.576.576,0,0,1-.379-.107.525.525,0,0,1-.161-.432.5.5,0,0,1,.208-.436.808.808,0,0,1,.448-.1c.119,0,.232.008.357.02v.218c-.1-.01-.226-.018-.325-.018-.271,0-.4.084-.4.319s.1.315.317.315a2.424,2.424,0,0,0,.428-.052v.209a2.54,2.54,0,0,1-.5.065" transform="translate(-706.507 -280.141)" fill="gray"/>
    <path id="Path_7991" data-name="Path 7991" d="M771.942,298.063c-.271,0-.389.085-.389.317s.119.331.389.331.385-.083.385-.315-.115-.333-.385-.333m.488.754a.858.858,0,0,1-.488.107.876.876,0,0,1-.49-.107.475.475,0,0,1-.192-.429.48.48,0,0,1,.192-.432,1.177,1.177,0,0,1,.978,0,.477.477,0,0,1,.19.43.484.484,0,0,1-.19.432" transform="translate(-725.402 -280.141)" fill="gray"/>
    <path id="Path_7992" data-name="Path 7992" d="M810.482,293.178a.767.767,0,0,1-.5-.143.712.712,0,0,1-.216-.577.677.677,0,0,1,.28-.587,1.059,1.059,0,0,1,.585-.131c.153,0,.311.01.482.024v.248c-.147-.012-.329-.022-.47-.022-.394,0-.561.149-.561.468s.155.47.445.47a3.147,3.147,0,0,0,.615-.083v.246a3.451,3.451,0,0,1-.666.087" transform="translate(-761.623 -274.394)" fill="gray"/>
    <path id="Path_7993" data-name="Path 7993" d="M836.908,298c-.238,0-.327.085-.345.238h.686c-.008-.165-.105-.238-.341-.238m-.043.892a.66.66,0,0,1-.432-.113.539.539,0,0,1-.164-.426.517.517,0,0,1,.192-.43.757.757,0,0,1,.446-.106.783.783,0,0,1,.441.1.543.543,0,0,1,.178.5h-.967c.006.156.089.256.375.256a3.676,3.676,0,0,0,.543-.052v.2a3.886,3.886,0,0,1-.614.067" transform="translate(-786.547 -280.113)" fill="gray"/>
    <path id="Path_7994" data-name="Path 7994" d="M863.464,298.871v-.562c0-.185-.095-.252-.264-.252a1.941,1.941,0,0,0-.416.064v.75H862.5v-1.019h.232l.01.065a2.353,2.353,0,0,1,.545-.093.5.5,0,0,1,.349.1.4.4,0,0,1,.111.319v.623Z" transform="translate(-811.217 -280.116)" fill="gray"/>
    <path id="Path_7995" data-name="Path 7995" d="M887.421,294.486a.369.369,0,0,1-.331-.146.527.527,0,0,1-.075-.308v-.382h-.206v-.212h.206l.03-.309h.251v.309h.4v.212h-.4v.327a.494.494,0,0,0,.028.194.181.181,0,0,0,.186.095,1.268,1.268,0,0,0,.2-.02v.2a1.636,1.636,0,0,1-.294.036" transform="translate(-834.082 -275.701)" fill="gray"/>
    <path id="Path_7996" data-name="Path 7996" d="M906.44,298.888V297.87h.232l.01.065a1.771,1.771,0,0,1,.5-.093h.036v.247h-.1a1.6,1.6,0,0,0-.4.052v.752Z" transform="translate(-852.545 -280.132)" fill="gray"/>
    <path id="Path_7997" data-name="Path 7997" d="M922.386,298.488c-.119-.01-.238-.016-.367-.016-.208,0-.28.042-.28.137s.059.137.219.137a2.056,2.056,0,0,0,.428-.059Zm.059.427-.008-.06a2.429,2.429,0,0,1-.553.089.526.526,0,0,1-.308-.075.29.29,0,0,1-.113-.246.286.286,0,0,1,.172-.276.934.934,0,0,1,.381-.055c.107,0,.25.006.369.014v-.018c0-.159-.105-.212-.391-.212-.111,0-.246.006-.375.018v-.206c.143-.012.3-.02.438-.02a.868.868,0,0,1,.476.095.379.379,0,0,1,.139.349v.6Z" transform="translate(-866.674 -280.16)" fill="gray"/>
    <path id="Path_7998" data-name="Path 7998" d="M947.92,291.1h.285v1.448h-.285Z" transform="translate(-891.558 -273.792)" fill="gray"/>
  </g>
</svg>
