<svg id="pix" xmlns="http://www.w3.org/2000/svg" width="72" height="32" viewBox="0 0 72 32">
  <rect id="Rectangle_652" data-name="Rectangle 652" width="72" height="32" rx="4" transform="translate(0 0)" fill="#fff" opacity="0.995"/>
  <path id="picpay-44" d="M17.574,353.795h2.608v-7.606H17.574Zm3.51-12.782H19.327v1.757h1.757Zm-9.857.855H8.708v2.206h2.341c1.485,0,2.34.72,2.34,2.07s-.855,2.115-2.34,2.115H8.708v-4.138H6.1v9.674H8.708v-3.331h2.476c3.015,0,4.771-1.62,4.771-4.41C15.954,343.443,14.244,341.868,11.228,341.868ZM22.84,339.26H17.574v5.263H22.84Zm-.855,4.365h-3.51v-3.513h3.51Zm15.3-1.757H34.9v2.206h2.25c1.485,0,2.341.72,2.341,2.07s-.855,2.115-2.341,2.115H34.9v-4.138H32.294v9.674H34.9v-3.331h2.385c3.015,0,4.77-1.62,4.77-4.41C42.058,343.443,40.3,341.868,37.288,341.868Zm21.918,2.791-2.251,5.669L54.7,344.659H52l3.6,9.136-1.4,3.465h2.745l4.951-12.6Zm-11.7-.045a8.691,8.691,0,0,0-4.141,1.035l.811,1.8a5.614,5.614,0,0,1,2.745-.81c1.26,0,1.891.54,1.891,1.531v.18H46.287c-2.251,0-3.465,1.035-3.465,2.745,0,1.665,1.17,2.834,3.15,2.834a3.724,3.724,0,0,0,2.88-1.215v.99h2.566v-5.94c-.086-1.935-1.484-3.151-3.914-3.151Zm1.531,6.122a2.168,2.168,0,0,1-2.116,1.4c-.9,0-1.44-.45-1.44-1.17s.495-1.035,1.485-1.035h2.07Zm-22.189,1.079a2.473,2.473,0,0,1,0-4.906,2.5,2.5,0,0,1,2.071.99l1.757-1.26a4.57,4.57,0,0,0-3.961-1.935,4.636,4.636,0,0,0,0,9.272,4.478,4.478,0,0,0,4.051-2.026l-1.8-1.215A2.337,2.337,0,0,1,26.845,351.814Z" transform="translate(1.9 -332.76)" fill="#12c66f"/>
</svg>
