<svg id="visa" xmlns="http://www.w3.org/2000/svg" width="44.8" height="32" viewBox="0 0 44.8 32">
  <rect id="Rectangle_647" data-name="Rectangle 647" width="44.8" height="32" rx="4" transform="translate(0 0)" fill="#fff" opacity="0.995"/>
  <g id="Group_1354" data-name="Group 1354" transform="translate(4 10.401)">
    <path id="Path_7822" data-name="Path 7822" d="M19.74,23.792,21.6,12.87h2.977L22.715,23.792Zm13.73-10.686a7.687,7.687,0,0,0-2.668-.458c-2.942,0-5.014,1.482-5.031,3.6-.017,1.57,1.479,2.445,2.609,2.967,1.159.535,1.548.88,1.542,1.354-.007.732-.926,1.066-1.781,1.066a6.24,6.24,0,0,1-2.8-.573l-.384-.174-.418,2.445a9.422,9.422,0,0,0,3.316.582c3.13,0,5.161-1.464,5.184-3.731.011-1.242-.782-2.188-2.5-2.967-1.04-.506-1.68-.842-1.671-1.354,0-.454.539-.939,1.7-.939a5.492,5.492,0,0,1,2.228.418l.266.126.4-2.367m7.661-.236h-2.3a1.481,1.481,0,0,0-1.558.906l-4.42,10.008h3.126s.511-1.346.626-1.642l3.813,0c.089.382.362,1.637.362,1.637h2.761L41.131,12.87Zm-3.65,7.053c.246-.63,1.186-3.053,1.186-3.053-.018.029.245-.632.394-1.04l.2.942s.57,2.607.689,3.154H37.482ZM17.213,12.87,14.3,20.318l-.31-1.514a8.524,8.524,0,0,0-4.123-4.582l2.668,9.551h3.15l4.686-10.9H17.213" transform="translate(-6.741 -12.648)" fill="#2347d4"/>
    <path id="Path_7823" data-name="Path 7823" d="M9.949,12.984h-4.8l-.038.227c3.734.9,6.206,3.089,7.231,5.714L11.3,13.906a1.246,1.246,0,0,0-1.35-.922" transform="translate(-5.111 -12.762)" fill="#2347d4"/>
  </g>
</svg>
