<svg xmlns="http://www.w3.org/2000/svg" width="204.8" height="72" viewBox="0 0 204.8 72">
  <g id="Group_4493" data-name="Group 4493" transform="translate(-16 -4131)">
    <g id="bandeiras" transform="translate(-217 -807.5)">
      <g id="amex" transform="translate(392.4 4938.5)">
        <rect id="Rectangle_651" data-name="Rectangle 651" width="44.8" height="32" rx="4" transform="translate(0 0)" fill="#fff" opacity="0.995"/>
        <path id="Path_7835" data-name="Path 7835" d="M28.338,9.695,27.6,11.419h1.49Zm-8.574,1.069a.438.438,0,0,0,.222-.411.394.394,0,0,0-.226-.382,1.151,1.151,0,0,0-.512-.08H17.92v.96h1.311a1.04,1.04,0,0,0,.534-.086ZM2.732,9.695,2,11.419H3.471Zm34.2,11.048H34.849v-.928h2.08a.633.633,0,0,0,.437-.107.373.373,0,0,0,.128-.282.348.348,0,0,0-.134-.282.566.566,0,0,0-.38-.1c-1.014-.033-2.278.03-2.278-1.34,0-.628.416-1.289,1.549-1.289H38.4v-.862h-2a2.32,2.32,0,0,0-1.351.354v-.354H32.094a2.109,2.109,0,0,0-1.29.354v-.354h-5.28v.354a2.906,2.906,0,0,0-1.455-.354H20.591v.354a2.547,2.547,0,0,0-1.52-.354h-3.9l-.891.924-.835-.924H7.629V21.6h5.71l.918-.939.863.939h3.52V20.179h.346a3.809,3.809,0,0,0,1.5-.212V21.6h2.9V20.023h.14c.178,0,.2.007.2.178v1.4h8.819a2.594,2.594,0,0,0,1.469-.386V21.6h2.8a3.893,3.893,0,0,0,1.582-.279V20.192a1.718,1.718,0,0,1-1.465.554Zm-17.9-1.423H17.686v1.452h-2.1l-1.33-1.433L12.88,20.771H8.6V16.443h4.342l1.329,1.419,1.373-1.418h3.45c.857,0,1.819.227,1.819,1.426s-.936,1.45-1.88,1.45Zm6.48-.2a1.218,1.218,0,0,1,.179.79v.858H24.606v-.542c0-.26.026-.646-.174-.847a1.08,1.08,0,0,0-.792-.192H22.486v1.581H21.4V16.444h2.492a2.778,2.778,0,0,1,1.3.2,1.006,1.006,0,0,1,.555.96,1.214,1.214,0,0,1-.765,1.151,1.173,1.173,0,0,1,.529.363Zm4.459-1.785H27.44v.787h2.466v.88H27.44v.861h2.528v.9h-3.6V16.437h3.6Zm2.774,3.433H30.64v-.928h2.094a.654.654,0,0,0,.441-.107.377.377,0,0,0,.127-.282.366.366,0,0,0-.132-.286.587.587,0,0,0-.385-.1c-1.01-.033-2.274.03-2.274-1.34,0-.628.412-1.289,1.543-1.289h2.164v.921H32.24a.756.756,0,0,0-.433.08.327.327,0,0,0-.16.311.333.333,0,0,0,.24.32,1.293,1.293,0,0,0,.42.049l.581.015a1.793,1.793,0,0,1,1.233.348,1.175,1.175,0,0,1,.32.917c0,.931-.607,1.366-1.7,1.366Zm-8.372-3.36a1.1,1.1,0,0,0-.515-.08H22.527V18.3H23.84a1.072,1.072,0,0,0,.533-.09A.462.462,0,0,0,24.6,17.8a.409.409,0,0,0-.224-.39Zm12.062-.08a.776.776,0,0,0-.437.08.333.333,0,0,0-.16.311.328.328,0,0,0,.24.32,1.28,1.28,0,0,0,.416.049l.586.015a1.76,1.76,0,0,1,1.225.349.56.56,0,0,1,.1.107V17.33H36.438Zm-17.36,0H17.663v1.1h1.4c.414,0,.673-.2.673-.572s-.27-.532-.66-.532Zm-9.394,0v.787h2.37V19H9.68v.864h2.654l1.233-1.27-1.181-1.262Zm6.93,3.026V16.887l-1.658,1.707,1.658,1.76Zm-6.84-6.949v.746h9.014l0-1.578h.178c.122,0,.16.015.16.208v1.37h4.665v-.372a3.828,3.828,0,0,0,1.731.367h1.962l.42-.96h.926l.41.96h3.782v-.91l.573.913h3.03V8.119h-3v.713l-.42-.713H30.123v.713l-.386-.713h-4.16a3.871,3.871,0,0,0-1.8.353V8.119H20.91v.352a1.832,1.832,0,0,0-1.219-.353H9.211l-.7,1.558-.72-1.558h-3.3v.713l-.363-.712H1.307L0,10.988v2.3L1.934,8.956h1.6l1.836,4.1v-4.1H7.13l1.413,2.935,1.3-2.935h1.8v4.327h-1.1l0-3.389L8.966,13.283H8.019L6.45,9.891v3.392h-2.2l-.414-.966H1.592l-.419.965H0v.87H1.845l.416-.96h.931l.414.96H7.235v-.735l.32.738H9.44l.32-.749ZM23.979,9.463a2.251,2.251,0,0,1,1.639-.5h1.046v.927H25.641a1.068,1.068,0,0,0-.83.256,1.389,1.389,0,0,0-.31.98,1.458,1.458,0,0,0,.3,1.014,1.072,1.072,0,0,0,.753.223h.485l1.52-3.4h1.618L31,13.048V8.956H32.64l1.9,3.014V8.956h1.106v4.327H34.118l-2.046-3.248v3.248h-2.2l-.42-.965h-2.24l-.413.964H25.539a2.335,2.335,0,0,1-1.566-.48,2.123,2.123,0,0,1-.577-1.652,2.24,2.24,0,0,1,.582-1.688ZM21.76,8.955h1.1v4.327h-1.1Zm-4.966,0h2.48a2.64,2.64,0,0,1,1.307.207,1,1,0,0,1,.546.96,1.22,1.22,0,0,1-.761,1.154,1.253,1.253,0,0,1,.534.364,1.2,1.2,0,0,1,.178.794v.85H19.993l0-.546a1.253,1.253,0,0,0-.17-.843,1.09,1.09,0,0,0-.787-.186H17.873v1.574h-1.08V8.955Zm-4.352,0h3.606v.9H13.52v.78h2.466v.887H13.52v.864h2.526v.9H12.441Z" transform="translate(3.2 1.481)" fill="#016fd0"/>
      </g>
      <g id="elo" transform="translate(339.6 4938.5)">
        <rect id="Rectangle_649" data-name="Rectangle 649" width="44.8" height="32" rx="4" transform="translate(0 0)" fill="#fff" opacity="0.995"/>
        <g id="Group_1356" data-name="Group 1356" transform="translate(4 9.601)">
          <path id="Path_7830" data-name="Path 7830" d="M14.189,14.717a3.907,3.907,0,0,1,1.254-.2,3.964,3.964,0,0,1,3.885,3.174l2.72-.556a6.736,6.736,0,0,0-8.734-5.046l.88,2.63Z" transform="translate(-8.709 -11.739)" fill="#fbc707"/>
          <path id="Path_7831" data-name="Path 7831" d="M8.579,24.41l1.84-2.08a3.967,3.967,0,0,1,0-5.937l-1.84-2.075a6.741,6.741,0,0,0,0,10.093Z" transform="translate(-6.307 -12.623)" fill="#38a7e4"/>
          <path id="Path_7832" data-name="Path 7832" d="M19.324,23.2a3.976,3.976,0,0,1-5.144,2.966L13.3,28.8a6.743,6.743,0,0,0,8.741-5.04l-2.72-.555Z" transform="translate(-8.705 -15.669)" fill="#ef3120"/>
          <path id="Path_7833" data-name="Path 7833" d="M37.349,22.019a2.4,2.4,0,0,1-1.729.694,2.35,2.35,0,0,1-1.249-.376l-.9,1.434a4.119,4.119,0,0,0,5.064-.538Zm-1.63-5.844a4.111,4.111,0,0,0-3.509,6.353l7.446-3.183a4.116,4.116,0,0,0-3.937-3.168m-2.468,4.368a2.352,2.352,0,0,1-.018-.289,2.421,2.421,0,0,1,2.457-2.382,2.393,2.393,0,0,1,1.81.862ZM42,14.325v7.937l1.376.572L42.719,24.4l-1.364-.566a1.52,1.52,0,0,1-.67-.566,1.775,1.775,0,0,1-.266-.982v-7.96H42ZM46.963,18A2.431,2.431,0,0,1,50.1,19.811l1.659-.341a4.112,4.112,0,0,0-4.029-3.29,4.171,4.171,0,0,0-1.3.208L46.963,18ZM45,23.366l1.12-1.266a2.422,2.422,0,0,1,0-3.625L45,17.21a4.109,4.109,0,0,0,0,6.16Zm5.1-2.59a2.414,2.414,0,0,1-3.139,1.81l-.538,1.607a4.11,4.11,0,0,0,5.335-3.075L50.1,20.777Z" transform="translate(-14.96 -12.626)" fill="#231f20"/>
        </g>
      </g>
      <g id="mastercard" transform="translate(286.8 4938.5)">
        <rect id="Rectangle_648" data-name="Rectangle 648" width="44.8" height="32" rx="4" transform="translate(0 0)" fill="#fff" opacity="0.995"/>
        <g id="type" transform="translate(-7.609 -10.652)">
          <path id="Path_8415" data-name="Path 8415" d="M44.134,37.84V37.9h.056a.053.053,0,0,0,.03-.007.029.029,0,0,0,0-.046.063.063,0,0,0-.03-.007Zm.056-.042a.1.1,0,0,1,.066.019.063.063,0,0,1,.024.053.06.06,0,0,1-.019.046.091.091,0,0,1-.053.022l.073.085h-.058l-.068-.084h-.022v.084h-.048V37.8Zm-.014.3a.175.175,0,0,0,.072-.015.189.189,0,0,0,.059-.04.194.194,0,0,0,.04-.06.186.186,0,0,0,0-.146.194.194,0,0,0-.04-.06.189.189,0,0,0-.059-.04.175.175,0,0,0-.072-.015.184.184,0,0,0-.074.015.189.189,0,0,0-.059.04.188.188,0,0,0,0,.267.189.189,0,0,0,.059.04A.184.184,0,0,0,44.175,38.1Zm0-.429a.254.254,0,0,1,.1.019.237.237,0,0,1,.078.053.244.244,0,0,1,.053.076.242.242,0,0,1,0,.187.256.256,0,0,1-.053.076.251.251,0,0,1-.078.052.237.237,0,0,1-.1.02.243.243,0,0,1-.1-.02A.24.24,0,0,1,44,38.081.256.256,0,0,1,43.947,38a.243.243,0,0,1,0-.187A.244.244,0,0,1,44,37.741a.227.227,0,0,1,.078-.053A.261.261,0,0,1,44.175,37.669Zm-22.634-.862a.735.735,0,1,1,.736.777A.728.728,0,0,1,21.541,36.808Zm1.964,0V35.6h-.527v.294a.921.921,0,0,0-.766-.356,1.276,1.276,0,0,0,0,2.548.921.921,0,0,0,.766-.355v.294h.527Zm17.826,0a.735.735,0,1,1,.737.777A.728.728,0,0,1,41.331,36.808Zm1.964,0V34.621h-.527V35.89A.921.921,0,0,0,42,35.534a1.276,1.276,0,0,0,0,2.548.921.921,0,0,0,.766-.355v.294H43.3Zm-13.242-.8a.6.6,0,0,1,.615.588H29.409A.624.624,0,0,1,30.053,36.007Zm.011-.473a1.275,1.275,0,0,0,.035,2.548,1.475,1.475,0,0,0,1-.34l-.259-.391a1.156,1.156,0,0,1-.706.254.674.674,0,0,1-.726-.594h1.8c0-.065.011-.132.011-.2A1.165,1.165,0,0,0,30.064,35.534Zm6.369,1.274a.735.735,0,1,1,.736.777A.728.728,0,0,1,36.433,36.808Zm1.964,0V35.6H37.87v.294a.921.921,0,0,0-.766-.356,1.276,1.276,0,0,0,0,2.548.921.921,0,0,0,.766-.355v.294H38.4Zm-4.943,0a1.226,1.226,0,0,0,1.295,1.274,1.269,1.269,0,0,0,.872-.289l-.254-.426a1.066,1.066,0,0,1-.635.218.778.778,0,0,1,0-1.554,1.066,1.066,0,0,1,.635.218l.254-.426a1.27,1.27,0,0,0-.872-.29A1.226,1.226,0,0,0,33.454,36.808Zm6.8-1.274a.716.716,0,0,0-.639.356V35.6h-.523v2.426h.527v-1.36c0-.4.173-.625.518-.625a.863.863,0,0,1,.33.061l.163-.5A1.135,1.135,0,0,0,40.255,35.534Zm-14.14.254a1.816,1.816,0,0,0-.99-.254c-.614,0-1.009.294-1.009.777,0,.4.293.639.837.715l.249.036c.29.041.426.117.426.254,0,.188-.192.294-.553.294a1.289,1.289,0,0,1-.807-.254l-.249.411a1.752,1.752,0,0,0,1.051.314c.7,0,1.106-.329,1.106-.791,0-.426-.319-.65-.848-.726l-.249-.036c-.228-.031-.41-.076-.41-.239s.173-.284.462-.284a1.562,1.562,0,0,1,.755.207Zm6.806-.254a.716.716,0,0,0-.639.356V35.6h-.523v2.426h.528v-1.36c0-.4.173-.625.518-.625a.867.867,0,0,1,.33.061l.162-.5A1.125,1.125,0,0,0,32.921,35.534Zm-4.5.061h-.863V34.86h-.533V35.6H26.53v.482h.493v1.106c0,.564.218.9.843.9a1.237,1.237,0,0,0,.659-.187l-.152-.452a.979.979,0,0,1-.467.138c-.265,0-.35-.163-.35-.406v-1.1h.863Zm-7.888,2.426V36.5a.9.9,0,0,0-.954-.965.941.941,0,0,0-.853.432.89.89,0,0,0-.8-.432.8.8,0,0,0-.711.361v-.3h-.527v2.426h.532V36.676a.568.568,0,0,1,.594-.644c.351,0,.528.229.528.639v1.35h.532V36.676a.572.572,0,0,1,.594-.644c.361,0,.533.229.533.639v1.35h.532" transform="translate(0 0)" fill="#221f1f"/>
        </g>
        <g id="color" transform="translate(-674.672 -4307.837)">
          <path id="Subtraction_1" data-name="Subtraction 1" d="M9.285,18.948A9.132,9.132,0,0,1,2.72,16.174a9.611,9.611,0,0,1,0-13.4A9.147,9.147,0,0,1,15,2.007a9.575,9.575,0,0,0,0,14.936A9.079,9.079,0,0,1,9.285,18.948Z" transform="translate(682 4312)" fill="#eb001b"/>
          <path id="Intersection_1" data-name="Intersection 1" d="M0,7.467A9.526,9.526,0,0,1,3.572,0a9.528,9.528,0,0,1,3.57,7.467,9.527,9.527,0,0,1-3.57,7.468A9.525,9.525,0,0,1,0,7.467Z" transform="translate(693.427 4314.006)" fill="#ff5f00"/>
          <path id="Subtraction_2" data-name="Subtraction 2" d="M5.712,18.948A9.074,9.074,0,0,1,0,16.942,9.527,9.527,0,0,0,2.6,13.7a9.541,9.541,0,0,0,.97-4.223A9.54,9.54,0,0,0,2.6,5.252,9.545,9.545,0,0,0,0,2.007a9.147,9.147,0,0,1,12.279.769,9.608,9.608,0,0,1,0,13.4A9.135,9.135,0,0,1,5.712,18.948Z" transform="translate(697 4312)" fill="#f79e1b"/>
        </g>
      </g>
      <g id="visa" transform="translate(234 4938.5)">
        <rect id="Rectangle_647" data-name="Rectangle 647" width="44.8" height="32" rx="4" transform="translate(0 0)" fill="#fff" opacity="0.995"/>
        <g id="Group_1354" data-name="Group 1354" transform="translate(4 10.401)">
          <path id="Path_7822" data-name="Path 7822" d="M19.74,23.792,21.6,12.87h2.977L22.715,23.792Zm13.73-10.686a7.687,7.687,0,0,0-2.668-.458c-2.942,0-5.014,1.482-5.031,3.6-.017,1.57,1.479,2.445,2.609,2.967,1.159.535,1.548.88,1.542,1.354-.007.732-.926,1.066-1.781,1.066a6.24,6.24,0,0,1-2.8-.573l-.384-.174-.418,2.445a9.422,9.422,0,0,0,3.316.582c3.13,0,5.161-1.464,5.184-3.731.011-1.242-.782-2.188-2.5-2.967-1.04-.506-1.68-.842-1.671-1.354,0-.454.539-.939,1.7-.939a5.492,5.492,0,0,1,2.228.418l.266.126.4-2.367m7.661-.236h-2.3a1.481,1.481,0,0,0-1.558.906l-4.42,10.008h3.126s.511-1.346.626-1.642l3.813,0c.089.382.362,1.637.362,1.637h2.761L41.131,12.87Zm-3.65,7.053c.246-.63,1.186-3.053,1.186-3.053-.018.029.245-.632.394-1.04l.2.942s.57,2.607.689,3.154H37.482ZM17.213,12.87,14.3,20.318l-.31-1.514a8.524,8.524,0,0,0-4.123-4.582l2.668,9.551h3.15l4.686-10.9H17.213" transform="translate(-6.741 -12.648)" fill="#2347d4"/>
          <path id="Path_7823" data-name="Path 7823" d="M9.949,12.984h-4.8l-.038.227c3.734.9,6.206,3.089,7.231,5.714L11.3,13.906a1.246,1.246,0,0,0-1.35-.922" transform="translate(-5.111 -12.762)" fill="#2347d4"/>
        </g>
      </g>
    </g>
    <g id="bandeiras-2" data-name="bandeiras" transform="translate(-218 -767.5)">
      <g id="pix" transform="translate(366.8 4938.5)">
        <rect id="Rectangle_652" data-name="Rectangle 652" width="72" height="32" rx="4" transform="translate(0 0)" fill="#fff" opacity="0.995"/>
        <path id="picpay-44" d="M17.574,353.795h2.608v-7.606H17.574Zm3.51-12.782H19.327v1.757h1.757Zm-9.857.855H8.708v2.206h2.341c1.485,0,2.34.72,2.34,2.07s-.855,2.115-2.34,2.115H8.708v-4.138H6.1v9.674H8.708v-3.331h2.476c3.015,0,4.771-1.62,4.771-4.41C15.954,343.443,14.244,341.868,11.228,341.868ZM22.84,339.26H17.574v5.263H22.84Zm-.855,4.365h-3.51v-3.513h3.51Zm15.3-1.757H34.9v2.206h2.25c1.485,0,2.341.72,2.341,2.07s-.855,2.115-2.341,2.115H34.9v-4.138H32.294v9.674H34.9v-3.331h2.385c3.015,0,4.77-1.62,4.77-4.41C42.058,343.443,40.3,341.868,37.288,341.868Zm21.918,2.791-2.251,5.669L54.7,344.659H52l3.6,9.136-1.4,3.465h2.745l4.951-12.6Zm-11.7-.045a8.691,8.691,0,0,0-4.141,1.035l.811,1.8a5.614,5.614,0,0,1,2.745-.81c1.26,0,1.891.54,1.891,1.531v.18H46.287c-2.251,0-3.465,1.035-3.465,2.745,0,1.665,1.17,2.834,3.15,2.834a3.724,3.724,0,0,0,2.88-1.215v.99h2.566v-5.94c-.086-1.935-1.484-3.151-3.914-3.151Zm1.531,6.122a2.168,2.168,0,0,1-2.116,1.4c-.9,0-1.44-.45-1.44-1.17s.495-1.035,1.485-1.035h2.07Zm-22.189,1.079a2.473,2.473,0,0,1,0-4.906,2.5,2.5,0,0,1,2.071.99l1.757-1.26a4.57,4.57,0,0,0-3.961-1.935,4.636,4.636,0,0,0,0,9.272,4.478,4.478,0,0,0,4.051-2.026l-1.8-1.215A2.337,2.337,0,0,1,26.845,351.814Z" transform="translate(1.9 -332.76)" fill="#12c66f"/>
      </g>
      <g id="pic_pay" data-name="pic pay" transform="translate(286.8 4938.5)">
        <rect id="Rectangle_652-2" data-name="Rectangle 652" width="72" height="32" rx="4" transform="translate(0 0)" fill="#fff" opacity="0.995"/>
        <g id="pix-106" transform="translate(7.999 6)">
          <path id="Caminho_7970" data-name="Caminho 7970" d="M390.276,69.93a.186.186,0,0,1-.186-.186V58.194a4.034,4.034,0,0,1,4.034-4.034h0l3.41,0a4.034,4.034,0,0,1,4.02,4.029v2.458a4.039,4.039,0,0,1-4.033,4.034H392.7a.186.186,0,0,1,0-.372h4.82a3.666,3.666,0,0,0,3.661-3.662V58.194a3.662,3.662,0,0,0-3.649-3.657l-3.41,0a3.661,3.661,0,0,0-3.661,3.661v11.55A.186.186,0,0,1,390.276,69.93Z" transform="translate(-366.895 -50.94)" fill="gray"/>
          <path id="Caminho_7971" data-name="Caminho 7971" d="M595.914,64.729a.186.186,0,0,1-.186-.186V55.915a1.394,1.394,0,0,0-1.393-1.393h-1.479a.186.186,0,0,1,0-.372h1.479a1.767,1.767,0,0,1,1.765,1.765v8.627A.186.186,0,0,1,595.914,64.729Z" transform="translate(-557.431 -50.93)" fill="gray"/>
          <path id="Path_7972" data-name="Path 7972" d="M629.316,2.068l-.671-.671a.426.426,0,0,1,0-.6l.671-.671a.427.427,0,0,1,.6,0l.67.671a.426.426,0,0,1,0,.6l-.673.671a.426.426,0,0,1-.6,0" transform="translate(-591.15 0.001)" fill="gray"/>
          <path id="Caminho_7973" data-name="Caminho 7973" d="M699.771,58.989a1.315,1.315,0,0,1-.937-.388L695.4,55.17a2.638,2.638,0,0,0-1.88-.778h-1.467a.186.186,0,1,1,0-.372h1.468a3.011,3.011,0,0,1,2.142.887l3.431,3.431a.951.951,0,0,0,1.346,0l3.419-3.418a3,3,0,0,1,2.143-.887H707.2a.186.186,0,1,1,0,.372H706a2.639,2.639,0,0,0-1.878.778L700.707,58.6A1.315,1.315,0,0,1,699.771,58.989Z" transform="translate(-650.732 -50.808)" fill="gray"/>
          <path id="Caminho_7974" data-name="Caminho 7974" d="M693.524,152.208h-1.468a.186.186,0,1,1,0-.372h1.467a2.64,2.64,0,0,0,1.881-.778l3.431-3.431a1.327,1.327,0,0,1,1.873,0l3.419,3.419a2.64,2.64,0,0,0,1.88.778H707.2a.186.186,0,1,1,0,.372H706a3.01,3.01,0,0,1-2.142-.887l-3.419-3.419a.954.954,0,0,0-1.346,0l-3.431,3.431A3.011,3.011,0,0,1,693.524,152.208Z" transform="translate(-650.732 -138.485)" fill="gray"/>
          <path id="Path_7975" data-name="Path 7975" d="M74.829,204.895a2.739,2.739,0,0,1-1.949-.8l-2.815-2.817a.535.535,0,0,0-.74,0L66.5,204.1a2.74,2.74,0,0,1-1.949.807H64l3.567,3.567a2.854,2.854,0,0,0,4.032,0l3.575-3.575Z" transform="translate(-60.193 -189.167)" fill="#25ccc1"/>
          <path id="Path_7976" data-name="Path 7976" d="M64.552,27.492A2.74,2.74,0,0,1,66.5,28.3l2.825,2.825a.524.524,0,0,0,.74,0L72.88,28.31a2.735,2.735,0,0,1,1.949-.807h.339l-3.575-3.575a2.85,2.85,0,0,0-4.032,0L64,27.492Z" transform="translate(-60.193 -21.719)" fill="#25ccc1"/>
          <path id="Path_7977" data-name="Path 7977" d="M17.908,112.68l-2.16-2.16a.415.415,0,0,1-.153.031h-.982a1.94,1.94,0,0,0-1.363.565l-2.815,2.813a1.352,1.352,0,0,1-1.91,0L5.7,111.1a1.939,1.939,0,0,0-1.363-.565H3.13a.423.423,0,0,1-.145-.029L.811,112.68a2.854,2.854,0,0,0,0,4.032L2.98,118.88a.408.408,0,0,1,.145-.029H4.336a1.94,1.94,0,0,0,1.363-.565l2.825-2.825a1.384,1.384,0,0,1,1.911,0l2.815,2.814a1.94,1.94,0,0,0,1.363.565h.982a.41.41,0,0,1,.153.031l2.16-2.16a2.85,2.85,0,0,0,0-4.032" transform="translate(0.023 -103.939)" fill="#25ccc1"/>
          <path id="Path_7978" data-name="Path 7978" d="M432.3,297.923a2.509,2.509,0,0,0-.529.08v.7a1.227,1.227,0,0,0,.411.069c.353,0,.52-.119.52-.43,0-.292-.137-.423-.4-.423m-.647,1.308v-1.393h.1l.01.06a2.787,2.787,0,0,1,.551-.089.545.545,0,0,1,.361.1.538.538,0,0,1,.159.432.49.49,0,0,1-.226.448.868.868,0,0,1-.41.091,1.473,1.473,0,0,1-.423-.065v.41Z" transform="translate(-405.984 -280.101)" fill="gray"/>
          <path id="Path_7979" data-name="Path 7979" d="M456.277,297.959c-.353,0-.51.111-.51.422s.155.436.51.436.508-.109.508-.42-.155-.438-.508-.438m.454.857a.771.771,0,0,1-.454.109.781.781,0,0,1-.455-.109.485.485,0,0,1-.182-.428.492.492,0,0,1,.182-.43,1.005,1.005,0,0,1,.91,0,.489.489,0,0,1,.181.427.5.5,0,0,1-.181.43" transform="translate(-428.548 -280.141)" fill="gray"/>
          <path id="Path_7980" data-name="Path 7980" d="M481.314,299.339l-.394-.845h-.008l-.388.845h-.109L480,298.32h.131l.349.855h.008l.379-.855h.109l.389.855h.008l.341-.855h.129l-.42,1.019Z" transform="translate(-451.46 -280.583)" fill="gray"/>
          <path id="Path_7981" data-name="Path 7981" d="M514.467,297.936c-.327,0-.438.146-.458.357h.916c-.01-.232-.129-.357-.458-.357m0,.969a.618.618,0,0,1-.424-.113.529.529,0,0,1-.159-.423.52.52,0,0,1,.19-.436.676.676,0,0,1,.4-.1.712.712,0,0,1,.407.1.517.517,0,0,1,.176.47h-1.044c0,.21.073.4.468.4a3.064,3.064,0,0,0,.526-.059v.107a3.109,3.109,0,0,1-.535.062" transform="translate(-483.325 -280.12)" fill="gray"/>
          <path id="Path_7982" data-name="Path 7982" d="M539.3,298.878v-1.019h.1l.01.059a1.791,1.791,0,0,1,.507-.089h.014v.113H539.9a1.668,1.668,0,0,0-.48.08v.853Z" transform="translate(-507.234 -280.122)" fill="gray"/>
          <path id="Path_7983" data-name="Path 7983" d="M552.187,297.936c-.327,0-.438.146-.458.357h.916c-.01-.232-.129-.357-.458-.357m0,.969a.616.616,0,0,1-.423-.113.528.528,0,0,1-.159-.423.521.521,0,0,1,.19-.436.679.679,0,0,1,.4-.1.712.712,0,0,1,.407.1.517.517,0,0,1,.179.47h-1.048c0,.21.073.4.468.4a3.079,3.079,0,0,0,.527-.06v.107a3.122,3.122,0,0,1-.535.062" transform="translate(-518.803 -280.12)" fill="gray"/>
          <path id="Path_7984" data-name="Path 7984" d="M576.449,291.679a1.226,1.226,0,0,0-.411-.068c-.353,0-.52.119-.52.43,0,.294.137.423.4.423a2.625,2.625,0,0,0,.529-.079Zm.023.869-.011-.059a2.74,2.74,0,0,1-.551.089.465.465,0,0,1-.52-.536.476.476,0,0,1,.226-.446.853.853,0,0,1,.411-.093,1.556,1.556,0,0,1,.422.064V291.1h.119v1.448Z" transform="translate(-541.178 -273.792)" fill="gray"/>
          <path id="Path_7985" data-name="Path 7985" d="M614.308,291.614a2.511,2.511,0,0,0-.529.08v.7a1.187,1.187,0,0,0,.411.071c.353,0,.52-.119.52-.43,0-.293-.137-.423-.4-.423m.3.871a.867.867,0,0,1-.409.091,1.445,1.445,0,0,1-.456-.077l-.006.048h-.081V291.1h.119v.486a2.879,2.879,0,0,1,.539-.084.546.546,0,0,1,.361.1.538.538,0,0,1,.159.432.489.489,0,0,1-.226.448" transform="translate(-577.173 -273.792)" fill="gray"/>
          <path id="Path_7986" data-name="Path 7986" d="M635.707,299.7v-.111c.059.006.113.01.151.01a.307.307,0,0,0,.318-.21l.039-.081-.535-1.018h.138l.456.879h.008l.433-.879h.136l-.573,1.144a.415.415,0,0,1-.426.276,1.168,1.168,0,0,1-.147-.01" transform="translate(-597.883 -280.555)" fill="gray"/>
          <path id="Path_7987" data-name="Path 7987" d="M671.845,293.02h-.395v.357h.395c.272,0,.375-.03.375-.178s-.142-.178-.378-.178m-.071-.576h-.322v.363h.325c.268,0,.375-.032.375-.183s-.136-.178-.377-.178m.613,1.063a1.175,1.175,0,0,1-.642.1h-.6V292.22h.589a1.12,1.12,0,0,1,.587.089.292.292,0,0,1,.142.274.3.3,0,0,1-.218.307v.008c.179.04.293.131.293.327a.3.3,0,0,1-.147.281" transform="translate(-631.235 -274.846)" fill="gray"/>
          <path id="Path_7988" data-name="Path 7988" d="M700.25,298.488c-.119-.01-.238-.016-.367-.016-.208,0-.281.042-.281.137s.059.137.22.137a2.052,2.052,0,0,0,.427-.059Zm.06.427-.008-.059a2.441,2.441,0,0,1-.553.089.528.528,0,0,1-.309-.075.315.315,0,0,1,.059-.522.937.937,0,0,1,.382-.055c.106,0,.25.006.369.014v-.018c0-.159-.1-.212-.391-.212-.111,0-.246.006-.375.018v-.206c.143-.012.305-.02.438-.02a.868.868,0,0,1,.476.095.379.379,0,0,1,.139.349v.6Z" transform="translate(-657.747 -280.16)" fill="gray"/>
          <path id="Path_7989" data-name="Path 7989" d="M726.744,298.871v-.562c0-.185-.094-.252-.264-.252a1.94,1.94,0,0,0-.416.064v.75h-.284v-1.019h.232l.01.065a2.351,2.351,0,0,1,.545-.093.5.5,0,0,1,.349.1.4.4,0,0,1,.11.319v.623Z" transform="translate(-682.626 -280.116)" fill="gray"/>
          <path id="Path_7990" data-name="Path 7990" d="M751.71,298.925a.576.576,0,0,1-.379-.107.525.525,0,0,1-.161-.432.5.5,0,0,1,.208-.436.808.808,0,0,1,.448-.1c.119,0,.232.008.357.02v.218c-.1-.01-.226-.018-.325-.018-.271,0-.4.084-.4.319s.1.315.317.315a2.424,2.424,0,0,0,.428-.052v.209a2.54,2.54,0,0,1-.5.065" transform="translate(-706.507 -280.141)" fill="gray"/>
          <path id="Path_7991" data-name="Path 7991" d="M771.942,298.063c-.271,0-.389.085-.389.317s.119.331.389.331.385-.083.385-.315-.115-.333-.385-.333m.488.754a.858.858,0,0,1-.488.107.876.876,0,0,1-.49-.107.475.475,0,0,1-.192-.429.48.48,0,0,1,.192-.432,1.177,1.177,0,0,1,.978,0,.477.477,0,0,1,.19.43.484.484,0,0,1-.19.432" transform="translate(-725.402 -280.141)" fill="gray"/>
          <path id="Path_7992" data-name="Path 7992" d="M810.482,293.178a.767.767,0,0,1-.5-.143.712.712,0,0,1-.216-.577.677.677,0,0,1,.28-.587,1.059,1.059,0,0,1,.585-.131c.153,0,.311.01.482.024v.248c-.147-.012-.329-.022-.47-.022-.394,0-.561.149-.561.468s.155.47.445.47a3.147,3.147,0,0,0,.615-.083v.246a3.451,3.451,0,0,1-.666.087" transform="translate(-761.623 -274.394)" fill="gray"/>
          <path id="Path_7993" data-name="Path 7993" d="M836.908,298c-.238,0-.327.085-.345.238h.686c-.008-.165-.105-.238-.341-.238m-.043.892a.66.66,0,0,1-.432-.113.539.539,0,0,1-.164-.426.517.517,0,0,1,.192-.43.757.757,0,0,1,.446-.106.783.783,0,0,1,.441.1.543.543,0,0,1,.178.5h-.967c.006.156.089.256.375.256a3.676,3.676,0,0,0,.543-.052v.2a3.886,3.886,0,0,1-.614.067" transform="translate(-786.547 -280.113)" fill="gray"/>
          <path id="Path_7994" data-name="Path 7994" d="M863.464,298.871v-.562c0-.185-.095-.252-.264-.252a1.941,1.941,0,0,0-.416.064v.75H862.5v-1.019h.232l.01.065a2.353,2.353,0,0,1,.545-.093.5.5,0,0,1,.349.1.4.4,0,0,1,.111.319v.623Z" transform="translate(-811.217 -280.116)" fill="gray"/>
          <path id="Path_7995" data-name="Path 7995" d="M887.421,294.486a.369.369,0,0,1-.331-.146.527.527,0,0,1-.075-.308v-.382h-.206v-.212h.206l.03-.309h.251v.309h.4v.212h-.4v.327a.494.494,0,0,0,.028.194.181.181,0,0,0,.186.095,1.268,1.268,0,0,0,.2-.02v.2a1.636,1.636,0,0,1-.294.036" transform="translate(-834.082 -275.701)" fill="gray"/>
          <path id="Path_7996" data-name="Path 7996" d="M906.44,298.888V297.87h.232l.01.065a1.771,1.771,0,0,1,.5-.093h.036v.247h-.1a1.6,1.6,0,0,0-.4.052v.752Z" transform="translate(-852.545 -280.132)" fill="gray"/>
          <path id="Path_7997" data-name="Path 7997" d="M922.386,298.488c-.119-.01-.238-.016-.367-.016-.208,0-.28.042-.28.137s.059.137.219.137a2.056,2.056,0,0,0,.428-.059Zm.059.427-.008-.06a2.429,2.429,0,0,1-.553.089.526.526,0,0,1-.308-.075.29.29,0,0,1-.113-.246.286.286,0,0,1,.172-.276.934.934,0,0,1,.381-.055c.107,0,.25.006.369.014v-.018c0-.159-.105-.212-.391-.212-.111,0-.246.006-.375.018v-.206c.143-.012.3-.02.438-.02a.868.868,0,0,1,.476.095.379.379,0,0,1,.139.349v.6Z" transform="translate(-866.674 -280.16)" fill="gray"/>
          <path id="Path_7998" data-name="Path 7998" d="M947.92,291.1h.285v1.448h-.285Z" transform="translate(-891.558 -273.792)" fill="gray"/>
        </g>
      </g>
      <g id="boleto" transform="translate(234 4938.5)">
        <rect id="Rectangle_652-3" data-name="Rectangle 652" width="44.8" height="32" rx="4" transform="translate(0 0)" fill="#fff" opacity="0.995"/>
        <path id="Path_7836" data-name="Path 7836" d="M0-9.5H1.125v-16H0Zm1.68-.011h.571V-25.5H1.68Zm1.7,0H3.93V-25.5H3.375Zm2.8,0H6.73V-25.5H6.178Zm2.25,0H9.536V-25.5H8.429Zm2.8,0h.554V-25.5h-.549Zm1.125,0h.554V-25.5h-.554Zm1.125,0h.554V-25.5h-.554Zm2.232,0h1.125V-25.5H15.714Zm2.8,0h1.125V-25.5H18.518Zm2.25,0h1.125V-25.5H20.768Zm2.25,0h1.125V-25.5H23.018Zm1.68,0h1.125V-25.5H24.7Zm2.822,0h1.68V-25.5H27.52Zm2.232,0h.578V-25.5h-.571Zm1.125.011H32v-16H30.875Z" transform="translate(6.4 33.5)" fill="#0f0d0b"/>
      </g>
    </g>
  </g>
</svg>
