<svg xmlns="http://www.w3.org/2000/svg" width="21" height="18.12" viewBox="0 0 21 18.12">
    <g id="btn-like" transform="translate(0.5 0.517)">
        <path id="heart"
            d="M9.965-13.75l.469-.468a5.683,5.683,0,0,1,4.9-1.559A5.582,5.582,0,0,1,20-10.27v.227a5.844,5.844,0,0,1-1.859,4.277L11.082.824A1.586,1.586,0,0,1,10,1.25,1.586,1.586,0,0,1,8.918.824L1.859-5.766A5.849,5.849,0,0,1,0-10.043v-.227a5.583,5.583,0,0,1,4.664-5.508,5.613,5.613,0,0,1,4.867,1.559l.434.468Zm0,1.77L8.648-13.336a4.339,4.339,0,0,0-3.777-1.209A4.366,4.366,0,0,0,1.215-10.27v.227a4.632,4.632,0,0,0,1.5,3.363L9.77-.09a.323.323,0,0,0,.2.09.364.364,0,0,0,.266-.09l7.059-6.59a4.608,4.608,0,0,0,1.461-3.363v-.227a4.335,4.335,0,0,0-3.621-4.275,4.307,4.307,0,0,0-3.777,1.209L9.965-11.98Z"
            transform="translate(0 15.853)" fill="#0d0d0d" stroke="rgba(0,0,0,0)" stroke-width="1" />
    </g>
</svg>