<svg width="37" height="36" viewBox="0 0 37 36" fill="none" xmlns="http://www.w3.org/2000/svg">
<ellipse cx="18.5294" cy="17.6264" rx="17.6471" ry="17.5824" fill="#232D64"/>
<path d="M14.7653 12.7636V11.4938C14.7636 10.9999 14.86 10.5105 15.0489 10.0539C15.2378 9.59722 15.5155 9.18232 15.866 8.83307C16.2166 8.48381 16.633 8.20711 17.0913 8.01888C17.5497 7.83066 18.0408 7.73464 18.5366 7.73635C19.5368 7.73635 20.496 8.13222 21.2033 8.83689C21.9105 9.54155 22.3079 10.4973 22.3079 11.4938V12.7506H25.4679C25.7166 12.7506 25.9629 12.7996 26.1925 12.8949C26.4222 12.9901 26.6306 13.1296 26.8059 13.3055C26.9812 13.4813 27.1198 13.6899 27.2138 13.9194C27.3078 14.1488 27.3553 14.3945 27.3536 14.6423V24.0489C27.3553 24.5434 27.259 25.0334 27.0702 25.4908C26.8815 25.9482 26.604 26.3639 26.2536 26.7142C25.9032 27.0645 25.4869 27.3424 25.0285 27.5321C24.5701 27.7217 24.0786 27.8193 23.5823 27.8193H13.4779C12.4777 27.8193 11.5184 27.4235 10.8112 26.7188C10.1039 26.0141 9.70659 25.0584 9.70659 24.0619V14.6293C9.70487 14.3815 9.75238 14.1358 9.84637 13.9064C9.94037 13.677 10.079 13.4683 10.2543 13.2925C10.4295 13.1167 10.638 12.9771 10.8676 12.8819C11.0972 12.7867 11.3435 12.7377 11.5922 12.7377L14.7653 12.7636ZM16.0137 12.7636H21.0594V11.4938C21.056 10.8294 20.7887 10.1934 20.3159 9.72479C19.8432 9.25619 19.2034 8.99315 18.5366 8.99316C17.8697 8.99315 17.23 9.25619 16.7572 9.72479C16.2845 10.1934 16.0172 10.8294 16.0137 11.4938V12.7636ZM11.6052 14.0074C11.5222 14.0074 11.4399 14.0239 11.3633 14.056C11.2867 14.088 11.2173 14.135 11.1592 14.1941C11.101 14.2533 11.0553 14.3234 11.0247 14.4003C10.9942 14.4773 10.9793 14.5595 10.981 14.6423V24.0489C10.981 24.7133 11.245 25.3507 11.7153 25.8217C12.1857 26.2928 12.824 26.5591 13.4909 26.5625H23.5693C24.2384 26.5625 24.8801 26.2977 25.3532 25.8263C25.8263 25.3549 26.0921 24.7156 26.0921 24.0489V14.6423C26.0922 14.4761 26.0268 14.3166 25.9101 14.1979C25.7934 14.0792 25.6347 14.0108 25.4679 14.0074H22.3079V17.1559C22.3044 17.322 22.2358 17.4802 22.1167 17.5965C21.9975 17.7128 21.8374 17.7779 21.6706 17.7778C21.5061 17.7745 21.3493 17.7079 21.2329 17.592C21.1166 17.4761 21.0497 17.3198 21.0464 17.1559V14.0074H16.0137V17.1559C16.0104 17.3198 15.9436 17.4761 15.8272 17.592C15.7109 17.7079 15.554 17.7745 15.3895 17.7778C15.2227 17.7779 15.0626 17.7128 14.9435 17.5965C14.8243 17.4802 14.7557 17.322 14.7523 17.1559V14.0074H11.6052Z" fill="white"/>
</svg>
