<svg id="lets" xmlns="http://www.w3.org/2000/svg" width="53.242" height="41.445" viewBox="0 0 53.242 41.445">
    <g id="Camada_1" data-name="Camada 1" transform="translate(0 0)">
        <path id="svg_8" data-name="svg 8" d="M0,289.413V279H7v2.118H2.427v1.971H6.751V285.1H2.427v2.163h4.84v2.148Z"
            transform="translate(0 -251.498)" fill="#223f73" />
        <path id="svg_9" data-name="svg 9"
            d="M94.3,315.823v-4a3.227,3.227,0,0,0-.051-.591,1.615,1.615,0,0,0-.17-.493.87.87,0,0,0-.33-.338,1.046,1.046,0,0,0-.537-.125,1.218,1.218,0,0,0-.567.125,1.145,1.145,0,0,0-.4.345,1.584,1.584,0,0,0-.242.508,2.177,2.177,0,0,0-.081.6v3.971H89.49V308.5h2.339v1.015h.029a2.449,2.449,0,0,1,.346-.463,2.071,2.071,0,0,1,.5-.386,3.1,3.1,0,0,1,.625-.265,2.481,2.481,0,0,1,.721-.1,2.712,2.712,0,0,1,1.251.265,2.4,2.4,0,0,1,.831.684,2.694,2.694,0,0,1,.456.963,4.382,4.382,0,0,1,.139,1.084v4.534H94.3Z"
            transform="translate(-80.669 -277.909)" fill="#223f73" />
        <path id="svg_10" data-name="svg 10"
            d="M176.206,310.533a1.478,1.478,0,0,0-.56-.429,1.717,1.717,0,0,0-.721-.162,1.515,1.515,0,0,0-.69.155,1.7,1.7,0,0,0-.53.411,1.942,1.942,0,0,0-.345.6,2.052,2.052,0,0,0-.125.721,2.169,2.169,0,0,0,.117.721,1.755,1.755,0,0,0,.346.591,1.634,1.634,0,0,0,.544.4,1.664,1.664,0,0,0,.714.147,2.006,2.006,0,0,0,.727-.139,1.4,1.4,0,0,0,.581-.405l1.34,1.633a3.154,3.154,0,0,1-1.177.69,4.641,4.641,0,0,1-1.531.255,4.851,4.851,0,0,1-1.62-.265,3.762,3.762,0,0,1-1.307-.773,3.641,3.641,0,0,1-.876-1.224,4.01,4.01,0,0,1-.317-1.633,3.965,3.965,0,0,1,.317-1.618,3.633,3.633,0,0,1,.873-1.228,3.844,3.844,0,0,1,1.307-.78,4.687,4.687,0,0,1,1.606-.273,4.2,4.2,0,0,1,.789.074,5.369,5.369,0,0,1,.75.2,3.351,3.351,0,0,1,.662.31,2.8,2.8,0,0,1,.522.4Z"
            transform="translate(-153.941 -277.576)" fill="#223f73" />
        <path id="svg_11" data-name="svg 11"
            d="M254.141,310.419a1.855,1.855,0,0,0-.316-.059c-.1-.01-.2-.015-.3-.015a1.725,1.725,0,0,0-.817.176,1.678,1.678,0,0,0-.529.425,1.62,1.62,0,0,0-.287.543,1.835,1.835,0,0,0-.088.514v3.755H249.39v-7.316h2.327v1.06h.03a2.378,2.378,0,0,1,.794-.919,2.041,2.041,0,0,1,1.192-.356,2.753,2.753,0,0,1,.287.015,1.106,1.106,0,0,1,.228.044Z"
            transform="translate(-224.808 -277.844)" fill="#223f73" />
        <path id="svg_12" data-name="svg 12"
            d="M308.611,318.785a6.362,6.362,0,0,1-.493,1.022,3.1,3.1,0,0,1-.648.765,2.562,2.562,0,0,1-.882.478,3.976,3.976,0,0,1-1.2.162,5.715,5.715,0,0,1-.7-.044,4.449,4.449,0,0,1-.625-.117l.264-2.03a2.781,2.781,0,0,0,.394.1,2.4,2.4,0,0,0,.389.037,1.091,1.091,0,0,0,.809-.257,2.109,2.109,0,0,0,.427-.728l.236-.6-3.056-7.207h2.676l1.633,4.707h.044l1.456-4.707H311.9Z"
            transform="translate(-273.611 -279.767)" fill="#223f73" />
        <path id="svg_13" data-name="svg 13"
            d="M402.929,312.061a4.634,4.634,0,0,1-.236,1.472,3.805,3.805,0,0,1-.684,1.242,3.366,3.366,0,0,1-1.1.861,3.254,3.254,0,0,1-1.471.323,3.076,3.076,0,0,1-1.281-.272,2.289,2.289,0,0,1-.942-.742h-.029v4.337h-2.41V308.428h2.294v.9h.044a2.97,2.97,0,0,1,.934-.773,2.845,2.845,0,0,1,1.4-.331,3.3,3.3,0,0,1,1.441.31,3.257,3.257,0,0,1,1.1.838,3.807,3.807,0,0,1,.69,1.228A4.413,4.413,0,0,1,402.929,312.061Zm-2.339,0a2.2,2.2,0,0,0-.11-.69,1.8,1.8,0,0,0-.323-.6,1.729,1.729,0,0,0-2.023-.419,1.748,1.748,0,0,0-.552.427,2,2,0,0,0,0,2.588,1.763,1.763,0,0,0,.552.427,1.626,1.626,0,0,0,.735.161,1.663,1.663,0,0,0,.75-.161,1.608,1.608,0,0,0,.537-.427,1.862,1.862,0,0,0,.323-.611A2.268,2.268,0,0,0,400.59,312.061Z"
            transform="translate(-355.867 -277.839)" fill="#223f73" />
        <path id="svg_14" data-name="svg 14"
            d="M484.26,294.492V297.3a1.281,1.281,0,0,0,.2.776.843.843,0,0,0,.714.257,2.419,2.419,0,0,0,.374-.03,1.255,1.255,0,0,0,.331-.088l.03,1.765a4.085,4.085,0,0,1-.633.154,4.45,4.45,0,0,1-.765.066,3.6,3.6,0,0,1-1.236-.184,1.906,1.906,0,0,1-.8-.531,2.083,2.083,0,0,1-.434-.825,4,4,0,0,1-.132-1.069v-3.1H480.73V292.7h1.162V290.77h2.366V292.7h1.723v1.795Z"
            transform="translate(-433.345 -262.108)" fill="#223f73" />
        <path id="svg_4" data-name="svg 4" d="M0,164.989V154.6H2.523v8.2H6.542v2.189Z" transform="translate(0 -139.36)"
            fill="#223f73" />
        <path id="svg_5" data-name="svg 5"
            d="M81.123,187.425v.3a2.519,2.519,0,0,1-.015.279h-5.3a1.281,1.281,0,0,0,.183.557,1.6,1.6,0,0,0,.394.433,1.954,1.954,0,0,0,1.166.389,2.026,2.026,0,0,0,.969-.213,1.908,1.908,0,0,0,.645-.55l1.676,1.056a3.372,3.372,0,0,1-1.357,1.151,4.487,4.487,0,0,1-1.958.4,4.691,4.691,0,0,1-1.555-.257,3.771,3.771,0,0,1-1.281-.748,3.45,3.45,0,0,1-.865-1.21,4.055,4.055,0,0,1-.315-1.643,4.1,4.1,0,0,1,.309-1.62,3.659,3.659,0,0,1,.836-1.232,3.714,3.714,0,0,1,1.247-.789,4.273,4.273,0,0,1,1.554-.279,3.943,3.943,0,0,1,1.479.271,3.243,3.243,0,0,1,1.159.789,3.611,3.611,0,0,1,.758,1.246A4.78,4.78,0,0,1,81.123,187.425Zm-2.215-.925a1.438,1.438,0,0,0-.36-.986,1.359,1.359,0,0,0-1.077-.411,1.83,1.83,0,0,0-.646.11,1.675,1.675,0,0,0-.514.3,1.487,1.487,0,0,0-.352.456,1.319,1.319,0,0,0-.147.535Z"
            transform="translate(-66.267 -165.365)" fill="#223f73" />
        <path id="svg_6" data-name="svg 6"
            d="M157.52,170.07v2.8a1.268,1.268,0,0,0,.2.774.845.845,0,0,0,.712.257,2.538,2.538,0,0,0,.374-.03,1.281,1.281,0,0,0,.33-.088l.03,1.759a3.96,3.96,0,0,1-.631.155,4.533,4.533,0,0,1-.763.066,3.593,3.593,0,0,1-1.232-.184,1.9,1.9,0,0,1-.8-.529,2.07,2.07,0,0,1-.433-.824,3.971,3.971,0,0,1-.132-1.066V170.07H154v-1.789h1.159V166.36h2.366v1.921h1.716v1.789Z"
            transform="translate(-138.82 -149.961)" fill="#223f73" />
        <path id="svg_7" data-name="svg 7"
            d="M239.779,185.852a2.682,2.682,0,0,0-.69-.47,1.918,1.918,0,0,0-.836-.19,1.479,1.479,0,0,0-.624.132.463.463,0,0,0-.286.454.454.454,0,0,0,.315.441,6.9,6.9,0,0,0,1.019.3,5.542,5.542,0,0,1,.829.249,2.926,2.926,0,0,1,.756.426,2.032,2.032,0,0,1,.542.646,1.89,1.89,0,0,1,.206.909,2.192,2.192,0,0,1-1.005,1.937,3.126,3.126,0,0,1-1,.422,4.785,4.785,0,0,1-1.11.132,5.526,5.526,0,0,1-1.752-.285,3.686,3.686,0,0,1-1.43-.844l1.349-1.423a2.685,2.685,0,0,0,.789.587,2.2,2.2,0,0,0,1,.236,1.312,1.312,0,0,0,.58-.14.5.5,0,0,0,.286-.493.522.522,0,0,0-.352-.5,6.368,6.368,0,0,0-1.1-.338,5.5,5.5,0,0,1-.763-.235,2.4,2.4,0,0,1-.681-.394,1.946,1.946,0,0,1-.493-.616,1.88,1.88,0,0,1-.19-.879,2.132,2.132,0,0,1,.279-1.123,2.341,2.341,0,0,1,.719-.755,3.177,3.177,0,0,1,.975-.433,4.181,4.181,0,0,1,1.065-.14,5.153,5.153,0,0,1,1.607.257,3.472,3.472,0,0,1,1.327.771Z"
            transform="translate(-211.575 -165.376)" fill="#223f73" />
        <path id="svg_15" data-name="svg 15"
            d="M217.667,152.58a1.225,1.225,0,0,0-1.287,1.183,1.114,1.114,0,0,0,1.183,1.17.872.872,0,0,0,.172-.017,1.342,1.342,0,0,1-1.084.964l-.1.016v1.117l.124-.012a2.639,2.639,0,0,0,1.551-.714,2.926,2.926,0,0,0,.825-2.169A1.415,1.415,0,0,0,217.667,152.58Z"
            transform="translate(-195.052 -137.539)" fill="#223f73" />
        <g id="svg_16" data-name="svg 16" transform="translate(35.599 6.899)">
            <path id="svg_17" data-name="svg 17"
                d="M372.018,77.008H368.9v-1.6a2.316,2.316,0,0,0-4.633,0v1.6H361.16v-1.6a5.429,5.429,0,0,1,10.858,0Z"
                transform="translate(-361.16 -69.98)" fill="#223f73" />
        </g>
        <path id="svg_18" data-name="svg 18"
            d="M352.3,141.28h-13.37a1.041,1.041,0,0,0-1.038,1.038v9.89a1.04,1.04,0,0,0,1.038,1.037H352.3a1.04,1.04,0,0,0,1.038-1.037v-9.89A1.041,1.041,0,0,0,352.3,141.28Zm-6.008,6.494v1.341a.677.677,0,1,1-1.354,0v-1.341a1.38,1.38,0,1,1,1.354,0Z"
            transform="translate(-304.585 -127.353)" fill="#223f73" />
        <path id="svg_19" data-name="svg 19"
            d="M296.5,108.994h-3.226a.947.947,0,1,1,0-1.895H296.5a.947.947,0,1,1,0,1.895Z"
            transform="translate(-263.515 -96.542)" fill="#223f73" />
        <path id="svg_20" data-name="svg 20"
            d="M325.739,38.3a.944.944,0,0,1-.6-.216l-2.552-2.1a.949.949,0,0,1,1.208-1.464l2.547,2.1a.947.947,0,0,1-.6,1.676Z"
            transform="translate(-290.478 -30.924)" fill="#223f73" />
        <path id="svg_21" data-name="svg 21"
            d="M407.577,5.137a.947.947,0,0,1-.947-.947V.937a.947.947,0,0,1,1.895,0V4.19A.947.947,0,0,1,407.577,5.137Z"
            transform="translate(-366.549 0.01)" fill="#223f73" />
        <g id="svg_22" data-name="svg 22" transform="translate(45.852 3.388)">
            <g id="svg_23" data-name="svg 23">
                <path id="svg_24" data-name="svg 24"
                    d="M466.117,38.352a.947.947,0,0,1-.6-1.676l2.552-2.1a.947.947,0,1,1,1.2,1.464l-2.552,2.095A.944.944,0,0,1,466.117,38.352Z"
                    transform="translate(-465.173 -34.362)" fill="#223f73" />
            </g>
        </g>
        <path id="svg_25" data-name="svg 25"
            d="M492.13,108.994h-3.253a.947.947,0,0,1,0-1.895h3.253a.947.947,0,0,1,0,1.895Z"
            transform="translate(-439.835 -96.542)" fill="#223f73" />
    </g>
</svg>