<svg xmlns="http://www.w3.org/2000/svg" width="210.264" height="38.467" viewBox="0 0 210.264 38.467">
  <g id="Camada_x0020_1" transform="translate(-321.901 -2854.796)">
    <path id="Caminho_8424" data-name="Caminho 8424" d="M1864.555,3017.359c.353.527,2.961.209,3.452.1,1.133-.27.872-1.167.863-2.77,0-1.076-.109-2.147-.114-3.223,0-.553.039-1.1.023-1.655q-.163-6.551,2.856-10.085a7.387,7.387,0,0,1,3.319-2.308c1.075-.209,1.7.065,1.885.836a2.952,2.952,0,0,1-.813,2.978c-1.181,1.137-1.72.671-2.779.658q-1.064-.007,0,.931c2.83,2.508,6.907,1.842,7.438,1.772,4.833-.606,7.743-3.95,8.344-4.063s-.3,2.543,1.755,3.493c2.295,1.062,7.664.544,10.552-1.864l1.833-1.533c.749-.622.139,1.655,3.558,3.462,3.994,2.112,11.022.453,11.214-5.091.061-1.6-1.3-2.387.383-2.7,2.526-.479,1.72-.183,3.91,4.377.588,1.224.972,1.973,1.133,2.26.409.688.844,1.695,1.994,1.438,1.508-.335,4.211-3.366,4.442-3.662l1.428-1.812c.157-.2.38-.127.666.209l3.994,4.638a2,2,0,0,0,1.668.631,6.236,6.236,0,0,0,2.966-1.145,19.79,19.79,0,0,0,4.619-3.784c1.116-1.345,1.433-2.221.955-2.612-1.105-.916-2.948,1.293-4.338,1.933-3.662,1.681-5.674-4.6-7.141-5.4-1.094-.591-2.653.1-4.695,2.074l-1.763,1.7c-.693.67-1.185-1.755-1.716-2.721a3.149,3.149,0,0,0-1.045-1.3c-.993-.488-6.716,1.3-10.1,1.45l-2.652.122c-.85.043.188,1.236.345,2.116.348,1.938-.383,3.907-1.554,4.207-2.055.531-2.647-2.8-2.474-3.963.427-2.887,3.462-3.326,3.667-3.479.579-.427-.013-.861-1.336-1.01-5.034-.554-6.716,4.764-12.3,7.808-4.3,2.347-3.065-.662-3.214-2.491-.348-4.323,1.455-4.62-4.163-4.454-.417.012-1.706-.148-2.089.771-.6,1.433.469,1.589-.877,3.148a10.057,10.057,0,0,1-5.333,3.5c-2.87.653-1.561-.775-1.295-1.616a7.655,7.655,0,0,0,.379-1.742c.161-2-2.425-4.307-6.641-3.7-3.713.544-6.544,3.78-6.662,3.858-.074.047-.135.135-.222.135h-.11a4.078,4.078,0,0,1-.069-1.384c.04-2.173.331-2.688-1.567-2.77-2.23-.1-2.334.3-2.705.749-.617.736-.983,1.659-1.554,2.438q-2.442,3.325-3.584,2.883c-.479-.183-5.269-5.648-6.244-5.861a2.333,2.333,0,0,0-2.392,1.023l-3.135,3.854q-.384.47-.941-.253l-2.991-3.867a2.239,2.239,0,0,0-3.549.314l-3.157,3.911c-.2.244-.458.166-.784-.24l-3.523-4.272a1.726,1.726,0,0,0-1.75-.361c-.819.3-2.922,2.485-4.8,4.089-.688.583-1.29,1.276-2,1.825a1.637,1.637,0,0,1-.261.2c-.671.331-1.3-1.084-1.873-1.785a7.731,7.731,0,0,0-2.378-2.256c-2.147-.641-1.873,2.521-2.256,3.614-.879,2.525-4.341,2.779-4.359.074-.022-3.092,3.993-4.429,4.2-4.563.34-.227.941-.863-.357-.989q-3.7-.359-8.039,2.56l-4.794,3.231c-2.139,1.433-3.685-3.771-4.277-4.638a1.847,1.847,0,0,0-2.238-1.1,9.3,9.3,0,0,0-3.144,2.234l-2.469,2.282c-.174.16-.331.121-.462-.114a26.3,26.3,0,0,1-.357-4.816c-.057-1.829.048-3.663-.065-5.488a17.087,17.087,0,0,1-.026-3.387c.013-.209.044-.419.039-.628-.009-.81-.64-.657-2.195-.688-1.455-.03-2.508-.244-2.552.675l-.357,7.931q-.34,7.622.566,10.451c.475,1.481,1.18,2.286,2.108,2.434,2.674.418,5.042-3.406,5.465-3.832.349-.354.71-.863,1.359-.087.444.54.709,1.215,1.123,1.776,1.581,2.134,2.125,2.147,3.715,2.108,2.787-.065,5.583-2.918,6.219-3.249.81-.427.714.436.853.823.671,1.842,3.175,3.192,6.079,2.552,3.624-.8,3.7-2.683,4.812-2.308.728.239,1.642,2.717,3.545,2.474,1.093-.135,3.64-2.409,5.239-3.593,1.145-.85,1.82-1.328,2.02-1.45,1.067-.632,1.215.875,3.771,3.724.932,1.031,1.95,2.046,4.146-.17l3.266-3.31c.74-.745,1.711,1.589,4.033,3.907a3.573,3.573,0,0,0,.448.439c.733.51,1.751.035,3.039-1.432l2.6-2.953c.223-.252.527-.2.919.157,1.51,1.376,3.305,4.18,4.755,4.311q1.972.177,5.409-2.582l2.2-1.769c.706-.562.209,1.315.493,5.248a44.334,44.334,0,0,1,.056,4.529A32.431,32.431,0,0,0,1864.555,3017.359Z" transform="translate(-1414.146 -124.391)" fill="#fefefe" fill-rule="evenodd"/>
    <path id="Caminho_8425" data-name="Caminho 8425" d="M341.692,2884.058a38.526,38.526,0,0,0,8.709.038,36.749,36.749,0,0,0,6.624-1.232c5.4-1.636,9.281-4.351,11.144-6.637,1.355-1.661-.478-.524-1.54-.114a50.424,50.424,0,0,1-10.461,2.8c-3.26.5-2.825.3-2.848-.991-.1-5.63.223-11.262.039-16.89-.049-1.482,0-1.415,1.652-1.264a41.769,41.769,0,0,1,9.835,2.236c.638.221,3.351,1.742,1.761-.669-3.417-5.178-14.247-6.371-17.85-6.5-22.185-.818-33.188,13.3-23.07,22.739Q331.413,2882.909,341.692,2884.058Z" transform="translate(0 0)" fill="#fefefe" fill-rule="evenodd"/>
    <path id="Caminho_8426" data-name="Caminho 8426" d="M453.759,2997.2a2.44,2.44,0,0,1,1.152-.11c.547.077.542.272.57.69l-.051,18.236a.489.489,0,0,1-.2.45,15.872,15.872,0,0,1-4.669-.632c-1.912-.556-5.792-2.275-7.428-5.626a8.51,8.51,0,0,1-.706-4.444C443.37,3000.788,448.693,2997.871,453.759,2997.2Z" transform="translate(-116.386 -137.44)" fill="#ed3237" fill-rule="evenodd"/>
    <path id="Caminho_8427" data-name="Caminho 8427" d="M4832.782,3079.566c.816.2,4.138.271,4.548-2.152s-3.638-3.742-5.939-1.983C4830.089,3076.429,4829.717,3078.8,4832.782,3079.566Z" transform="translate(-4355.626 -212.373)" fill="#fefefe" fill-rule="evenodd"/>
  </g>
</svg>
