<svg id="_2bdigital" data-name="2bdigital" xmlns="http://www.w3.org/2000/svg" width="108.677" height="28.49"
  viewBox="0 0 108.677 28.49">
  <path id="Path_8364" data-name="Path 8364"
    d="M17.772-111.75h2.071v21.058H17.772v-2.766a6.181,6.181,0,0,1-2.108,2.285,5.716,5.716,0,0,1-3.173.865,7.533,7.533,0,0,1-3.018-.606A7.9,7.9,0,0,1,7-92.593a7.9,7.9,0,0,1-1.679-2.478,7.533,7.533,0,0,1-.606-3.018,7.586,7.586,0,0,1,.606-3.025A7.872,7.872,0,0,1,7-103.6a7.9,7.9,0,0,1,2.478-1.679,7.533,7.533,0,0,1,3.018-.606,5.716,5.716,0,0,1,3.173.865,6.214,6.214,0,0,1,2.108,2.271ZM12.506-92.319a4.714,4.714,0,0,0,2.722-.777,5.067,5.067,0,0,0,1.753-2.093,6.776,6.776,0,0,0,.614-2.9,6.764,6.764,0,0,0-.621-2.936,5.077,5.077,0,0,0-1.76-2.078,4.721,4.721,0,0,0-2.707-.769,5.419,5.419,0,0,0-2.855.777A5.85,5.85,0,0,0,7.594-101a5.671,5.671,0,0,0-.769,2.914,5.577,5.577,0,0,0,.784,2.921,5.909,5.909,0,0,0,2.078,2.078A5.417,5.417,0,0,0,12.506-92.319Zm11.079-13.165h2.071v14.792H23.585Zm1.05-2.884a1.184,1.184,0,0,1-.851-.333,1.109,1.109,0,0,1-.348-.836,1.109,1.109,0,0,1,.348-.836,1.184,1.184,0,0,1,.851-.333,1.165,1.165,0,0,1,.836.333,1.109,1.109,0,0,1,.348.836,1.109,1.109,0,0,1-.348.836A1.165,1.165,0,0,1,24.635-108.369Zm16.937,2.884h2.071v15.339a5.93,5.93,0,0,1-.614,2.663A7.213,7.213,0,0,1,41.373-85.3,7.9,7.9,0,0,1,39-83.829a7.382,7.382,0,0,1-2.766.533,6.683,6.683,0,0,1-2.973-.7,8.182,8.182,0,0,1-2.492-1.871,6.894,6.894,0,0,1-1.5-2.589l1.908-.873a4.837,4.837,0,0,0,1.058,2,5.851,5.851,0,0,0,1.834,1.42,4.821,4.821,0,0,0,2.167.525,5.325,5.325,0,0,0,1.975-.377,6.039,6.039,0,0,0,1.716-1.028A4.953,4.953,0,0,0,41.129-88.3a3.98,3.98,0,0,0,.444-1.842v-3.269a6.279,6.279,0,0,1-2.078,2.248,5.419,5.419,0,0,1-3.04.858,7.128,7.128,0,0,1-2.921-.606,7.578,7.578,0,0,1-2.4-1.679,7.9,7.9,0,0,1-1.62-2.478,7.781,7.781,0,0,1-.584-3.018,7.836,7.836,0,0,1,.584-3.025,7.875,7.875,0,0,1,1.62-2.485,7.579,7.579,0,0,1,2.4-1.679,7.128,7.128,0,0,1,2.921-.606,5.454,5.454,0,0,1,3.04.851,6.182,6.182,0,0,1,2.078,2.256Zm-5.1,13.165a4.444,4.444,0,0,0,2.655-.8,5.24,5.24,0,0,0,1.723-2.115,6.74,6.74,0,0,0,.606-2.855,6.727,6.727,0,0,0-.614-2.892,5.228,5.228,0,0,0-1.738-2.1,4.457,4.457,0,0,0-2.633-.791,5.051,5.051,0,0,0-2.744.777A5.637,5.637,0,0,0,31.765-101a5.941,5.941,0,0,0-.725,2.914,5.806,5.806,0,0,0,.74,2.907A5.772,5.772,0,0,0,33.755-93.1,5,5,0,0,0,36.469-92.319Zm10.576-13.165h2.071v14.792H47.045Zm1.05-2.884a1.184,1.184,0,0,1-.851-.333,1.109,1.109,0,0,1-.348-.836,1.109,1.109,0,0,1,.348-.836,1.184,1.184,0,0,1,.851-.333,1.165,1.165,0,0,1,.836.333,1.109,1.109,0,0,1,.348.836,1.109,1.109,0,0,1-.348.836A1.165,1.165,0,0,1,48.1-108.369Zm12.736,4.955H57.3l-.015,12.721H55.211l.015-12.721H52.548v-2.071h2.677l-.015-4.645h2.071l.015,4.645h3.535Zm14.526-2.071h2.071v14.792H75.343l-.059-2.751a5.962,5.962,0,0,1-2.027,2.271,5.481,5.481,0,0,1-3.106.865,7.6,7.6,0,0,1-3.047-.614,7.979,7.979,0,0,1-2.5-1.694,7.876,7.876,0,0,1-1.686-2.5,7.676,7.676,0,0,1-.606-3.047,7.658,7.658,0,0,1,.592-3,7.665,7.665,0,0,1,1.657-2.47,7.812,7.812,0,0,1,2.456-1.664A7.47,7.47,0,0,1,70-105.9a5.88,5.88,0,0,1,3.24.88,6.439,6.439,0,0,1,2.174,2.3ZM70.2-92.319a4.642,4.642,0,0,0,2.729-.791,5.015,5.015,0,0,0,1.723-2.123,6.665,6.665,0,0,0,.547-2.929,6.774,6.774,0,0,0-.7-2.892,5.243,5.243,0,0,0-1.8-2.056,4.764,4.764,0,0,0-2.7-.762,5.407,5.407,0,0,0-2.877.791,5.7,5.7,0,0,0-2.034,2.115,5.622,5.622,0,0,0-.7,2.951,5.752,5.752,0,0,0,.865,2.877,6.053,6.053,0,0,0,2.108,2.056A5.5,5.5,0,0,0,70.2-92.319Zm11.079,1.627V-111.75h2.071v21.058Z"
    transform="translate(25.331 111.786)" fill="#979899" />
  <path id="Path_8365" data-name="Path 8365"
    d="M6.28-90.847v-3.964q.828-.518,2.071-1.442t2.611-2.078q1.368-1.154,2.559-2.345a17.507,17.507,0,0,0,1.945-2.263,3.384,3.384,0,0,0,.754-1.812,2.678,2.678,0,0,0-.37-1.383,2.807,2.807,0,0,0-.984-1,2.6,2.6,0,0,0-1.368-.37,2.639,2.639,0,0,0-1.376.37,2.848,2.848,0,0,0-1,1,2.638,2.638,0,0,0-.377,1.383H6.31A6.911,6.911,0,0,1,7.3-108.42a7.336,7.336,0,0,1,2.626-2.574,7,7,0,0,1,3.572-.947,6.935,6.935,0,0,1,3.595.961,7.277,7.277,0,0,1,2.6,2.6,6.988,6.988,0,0,1,.969,3.631,6.58,6.58,0,0,1-.266,1.886,7.894,7.894,0,0,1-.777,1.76,13.348,13.348,0,0,1-1.265,1.768q-.754.9-1.738,1.9t-2.167,2.152h7.72v4.438ZM30.3-106.054A7.583,7.583,0,0,1,34.237-105a7.934,7.934,0,0,1,2.825,2.818,7.516,7.516,0,0,1,1.05,3.913,7.639,7.639,0,0,1-.606,3.032,7.849,7.849,0,0,1-1.679,2.492,7.872,7.872,0,0,1-2.485,1.679,7.623,7.623,0,0,1-3.04.606,4.351,4.351,0,0,1-2.1-.5,6.043,6.043,0,0,1-1.627-1.272v1.39H22.137V-111.9h4.438v7.626a5.79,5.79,0,0,1,1.627-1.28A4.4,4.4,0,0,1,30.3-106.054Zm-.059,11.3a3.082,3.082,0,0,0,1.672-.473,3.455,3.455,0,0,0,1.2-1.272,3.593,3.593,0,0,0,.444-1.775,3.563,3.563,0,0,0-.444-1.76,3.515,3.515,0,0,0-1.2-1.28,3.047,3.047,0,0,0-1.672-.481,2.985,2.985,0,0,0-1.649.481,3.537,3.537,0,0,0-1.191,1.28,3.563,3.563,0,0,0-.444,1.76A3.593,3.593,0,0,0,27.4-96.5a3.476,3.476,0,0,0,1.191,1.272A3.019,3.019,0,0,0,30.243-94.752Z"
    transform="translate(-6.28 111.941)" fill="#979899" />
</svg>