<svg xmlns="http://www.w3.org/2000/svg" width="190" height="166.256" viewBox="0 0 190 166.256">
  <path id="Path_8417" data-name="Path 8417" d="M187.88,144.626,108.723,9.543a15.986,15.986,0,0,0-27.455,0L2.148,144.626c-6.09,10.354,1.5,23.38,13.7,23.38H174.164C186.321,168.006,193.929,155.017,187.88,144.626ZM86.085,52.221a8.907,8.907,0,0,1,17.813,0v47.5a8.845,8.845,0,0,1-8.573,8.907c-4.583,0-9.241-3.971-9.241-8.907Zm8.907,92.035a11.668,11.668,0,1,1,11.668-11.668A11.669,11.669,0,0,1,94.992,144.255Z" transform="translate(-0.001 -1.75)" fill="#e0e0e0"/>
</svg>
